<?xml version="1.0" encoding="utf-8"?>
<!-- Generator: Adobe Illustrator 26.1.0, SVG Export Plug-In . SVG Version: 6.00 Build 0)  -->
<svg version="1.1" id="圖層_1" xmlns="http://www.w3.org/2000/svg" xmlns:xlink="http://www.w3.org/1999/xlink" x="0px" y="0px"
	 viewBox="0 0 162.4 157.3" style="enable-background:new 0 0 162.4 157.3;" xml:space="preserve">
<style type="text/css">
	.st0{fill:#FFFFFF;}
	.st1{fill:#CF132A;}
</style>
<g id="Group_67_00000119828034427774636670000016682566081636131494_" transform="translate(-21.841 -18)">
	<g>
		<g>
			<path class="st0" d="M45.9,170.6c-3.3,0-6.1-2.6-6.4-5.9L28.8,29.1c-0.1-1.6,0.4-3.2,1.5-4.4c1.1-1.2,2.6-1.9,4.3-1.9h136.7
				c1.7,0,3.2,0.7,4.3,1.9c1.1,1.2,1.7,2.8,1.5,4.4l-10.6,135.6c-0.3,3.3-3.1,5.9-6.4,5.9H45.9z"/>
			<path d="M171.3,23.7c1.4,0,2.7,0.6,3.6,1.6c0.9,1,1.4,2.3,1.3,3.7l-10.6,135.6c-0.2,2.8-2.6,5.1-5.5,5.1H45.9
				c-2.8,0-5.2-2.2-5.5-5L29.7,29c-0.1-1.4,0.4-2.7,1.3-3.7c0.9-1,2.2-1.6,3.6-1.6H171.3 M171.3,21.8H34.6c-1.9,0-3.7,0.8-5,2.2
				c-1.3,1.4-1.9,3.2-1.8,5.1l10.7,135.6c0.3,3.8,3.5,6.7,7.3,6.7h114.3c3.8,0,7-3,7.3-6.7l10.6-135.6c0.1-1.9-0.5-3.7-1.8-5.1
				C175,22.6,173.2,21.8,171.3,21.8L171.3,21.8z"/>
		</g>
		<g>
			<g>
				<g>
					<path d="M64.5,135.4l-0.4,1.8c-0.1,0.2,0.1,0.5,0.3,0.6c0.7,0.3,2,1.4,1.3,4c-0.9,4.5-3.2,14.4-3.2,14.4s-0.3,1.8-2.7,2.7
						c-0.3,0.1-0.5,0.3-0.6,0.6c-0.2,0.6-0.3,1.2-0.4,1.7c-0.1,0.4,0.2,0.7,0.6,0.7h12.4c0.3,0,0.6-0.2,0.7-0.6l0.5-1.7
						c0.1-0.3,0-0.7-0.3-0.9c-0.6-0.4-1.4-1.1-1.3-2.3c0.4-2.2,1.5-6.6,1.5-6.6l4.2,7.1c0,0,2,4.6,7.4,4.9h7c0.2,0,0.5-0.2,0.5-0.4
						l0.4-1.9c0.1-0.3-0.2-0.6-0.5-0.6c-0.7-0.1-2-0.3-2.6-1.2c-1.3-1.7-8.1-10.8-8.1-10.8l9.6-8c0,0,1.5-0.8,3.1-0.9
						c0.3,0,0.6-0.3,0.7-0.6c0.1-0.7,0.2-1.5,0.3-2c0-0.3-0.2-0.5-0.4-0.5H83.4c-0.3,0-0.6,0.2-0.6,0.5l-0.3,1.6
						c-0.1,0.4,0.1,0.7,0.4,0.9c0.5,0.4,1,1,0.1,1.6l-9.4,7.8l1.6-7.9c0,0,0.5-1.3,1.7-1.6c0.2-0.1,0.4-0.3,0.5-0.5
						c0.1-0.6,0.3-1.2,0.4-1.6c0.1-0.4-0.2-0.7-0.6-0.7H65.1C64.8,134.9,64.6,135.1,64.5,135.4z"/>
					<path d="M97.1,135.6l-0.3,1.6c0,0.2,0.1,0.4,0.3,0.5c0.6,0.3,1.9,1.1,1.7,2.7c-0.5,2.4-3.5,16.4-4.4,20.4c-0.1,0.5,0.3,1,0.8,1
						h9.8c0.2,0,0.4-0.2,0.5-0.4l0.6-1.9c0.1-0.3,0-0.7-0.3-0.8c-0.6-0.4-1.6-1.2-1.4-2.7c0.4-1.8,1-4.6,1-4.6h8.9
						c0.3,0,0.6-0.2,0.7-0.6c0.2-0.9,0.5-2.5,0.7-3.4c0.1-0.5-0.3-0.9-0.8-0.9l-8.2,0l1.4-7.3l6.6,0c1.1,0,2,1,1.9,2.1l-0.1,0.7
						c0,0.3,0.2,0.6,0.5,0.6h2.2c0.3,0,0.6-0.2,0.6-0.5l1.3-6.6c0.1-0.4-0.2-0.7-0.6-0.7H98C97.6,134.9,97.2,135.2,97.1,135.6z"/>
					<path d="M146.8,135.5c-2.1-0.8-9.2-2.8-18.6,1.1c-6.9,3.6-8.2,9.3-8.6,14c-0.4,4.7,5.6,15.5,23.9,10.4c0.3-0.1,0.6-0.4,0.7-0.7
						l0.6-3c0.1-0.5-0.4-0.9-0.8-0.8c-2.3,0.6-7.6,1.8-10.9-0.2c-4.3-2.6-4.2-5.4-4.2-7.8c0-2.4,2.2-9.7,9.1-9.9
						c4.3,0,4.6,2.7,4.5,4c0,0.3,0.2,0.6,0.6,0.6l1.9,0c0.3,0,0.6-0.2,0.7-0.5l1.5-6.2C147.3,136.1,147.1,135.7,146.8,135.5z"/>
				</g>
			</g>
			<path d="M129.9,61.6c0,0,3.8-14.2-7.2-25.3c0,0-0.4-0.3-0.6-0.5c-0.5-0.4-1.1-0.9-1.7-1.4c-1.4-1-2.6-1.9-4.9-3
				c-0.6-0.3-3.2-1.5-5.6-2.1c-0.9-0.2-2.5-0.6-4.1-0.8c-0.1,0-0.2,0-0.3,0c0,0,0,0,0,0c-0.1,0-0.2,0-0.3,0c-0.1,0-0.1,0-0.2,0
				c-0.1,0-0.2,0-0.3,0c-0.1,0-0.1,0-0.2,0c-0.1,0-0.2,0-0.3,0c-0.1,0-0.2,0-0.3,0c-0.1,0-0.3,0-0.4,0c-0.2,0-0.3,0-0.5,0
				c-0.1,0-0.2,0-0.3,0c-0.1,0-0.2,0-0.3,0c-0.1,0-0.2,0-0.4,0c-0.4,0-0.9,0.1-1.4,0.1c-0.9,0.1-1.8,0.3-2.4,0.4
				c-0.6,0.2-1.5,0.3-2.6,0.6c-0.4,0.1-0.9,0.3-1.3,0.4c-0.1,0-0.3,0.1-0.4,0.1c-0.5,0.2-1,0.3-1.5,0.5c-0.4,0.1-1.9,0.8-2.2,0.9
				c-0.2,0.1-0.4,0.2-0.6,0.3c-1.5,0.5-1.3,1.5-1.3,1.5c-1.8,4.4-7.3,4.2-7.3,4.2c-0.1,1.9,3.9,3.7,3.9,3.7C84,42.7,81.7,43.8,79,44
				c-2.8,0.2-3,2.6-3,2.6c1.3,2.1,3,2.7,1.5,13.2c-1.5,10.6,7.2,18.3,7.2,18.3C84,82.8,87,88,87,88c-0.9,3.8,2.6,9.4,2.6,9.4
				c0.2,0.4,2.6,3.2,6.6,5.8c0.6,0.4,1.1,0.7,1.3,0.8c0,0,0,0,0,0c0,0,0,0,0.1,0.1c0,0,0,0,0,0.1c0,0,0,0,0,0
				c0.1,0.2,0.3,0.5-0.1,0.5c-0.4,0-1.6-0.1-2.8,0.2c-1.3,0.3-1.1,0.8-1.1,1.6c0,0.7,0,1.2,0,2.1c0,0.9-0.2,1.7,0.2,2.2
				c0.4,0.4,0.9,0.7,2.5,0.6c1.5-0.1,2-0.1,2.2-0.1c0.2,0,3.5-0.2,4-0.3c0.5-0.2,0.6,0.2,0.3,0.8c-0.7,1.4-3.5,6.9-9.1,12
				c-0.9,0.8,3.9,2.1,4.3,1.9c0.4-0.1,3.1-3,4.7-5.6c0.1-0.1,0.9-1.3,1.5-2.9c0.1-0.3,0.3-0.4,0.4,0c0,0.3,0.6,8,0.2,10.8
				c-0.2,1.4,1,1.2,4.2,2c0.8,0.2,0.3-13.1-1.6-18.5c0,0,0,0,0,0c0,0,0-0.1,0-0.1c0-0.2,0.1-0.3,0.3-0.4c0,0,0.1,0,0.1,0
				c1.1-0.2,3.6-0.1,4,0c0.4,0,1.5,0.2,2.2,0.3c0.6,0.1,2,0.2,1.9-1.6c0-0.5,0-1,0-1.4c0-0.1,0-0.1,0-0.2c0-0.1,0-0.2,0-0.3
				c0-0.1,0-0.1,0-0.2c0-0.1,0-0.1,0-0.2c0-0.1,0-0.1,0-0.2c0-0.1,0-0.2,0-0.3c0,0,0-0.1,0-0.1c0-0.1,0-0.1,0-0.2c0,0,0-0.1,0-0.1
				c0-0.1,0-0.1,0-0.1c0,0,0,0,0,0c0-0.1,0-0.1,0-0.2c0-0.4-0.1-1.1-0.9-1.3c-1-0.2-2.6-0.2-4.2,0.1c-0.2,0-0.3,0-0.4-0.1
				c0-0.1,0-0.2,0.2-0.3c0.3-0.2,3.1-1.6,5.7-3.9c2.8-2.5,4.1-4.5,5-6.3c0,0,2.8-5.9,2.2-12.4l0.5-0.6c0,0,1.9,0.7,3-2.2
				C128.3,76,135.4,63.4,129.9,61.6 M82.7,69.1c-0.2-0.2-1.2-1.9-1.5-3.7c0-0.2,0-0.7,0.3-0.7c0.3-0.1,0.6-0.2,0.8-0.3
				c0.2-0.1,0.6-0.1,0.6,0.5c0,0.6-0.1,1.4,0.4,3.3c0.1,0.3,0.1,0.4,0.1,0.6C83.4,69.1,83,69.3,82.7,69.1 M85.7,63.6
				c-0.1,0-0.8,0-1.3,0c-0.3,0-0.5,0.1-0.5-0.2c0-0.3,0-0.7,0-0.8c0-0.1,0.1-0.2,0.2-0.2c0.3,0,1.5-0.1,1.6-0.1
				c0.1,0,0.2,0.1,0.2,0.3c0,0.2,0,0.5,0,0.6C86,63.4,86,63.6,85.7,63.6 M85.6,50.1c-0.3,0.3-0.9,0.8-1.3,1.7
				c-0.3,0.9-1.5,3.9-1.7,8.8c0,0.6,0.1,1.3-0.4,1.5c-0.3,0.1-0.6,0.2-0.9,0.3c-0.3,0.1-0.5,0.1-0.6-0.3c-0.3-0.9-0.4-2.5-0.4-3.5
				c0-1,0.2-4,0.5-5.6c0.3-1.6,0.1-2.6-0.4-3.4c-0.5-0.9-0.8-1.4-0.9-1.7c-0.1-0.4,0-0.6,0.4-0.8c0.2-0.1,0.5,0,0.8,0
				c0.5,0,2.3-0.4,3.7-1.3c1.4-0.8,3.7-2.5,5.1-3.1c1.5-0.6,2.1-0.8,3.7-0.8c0.3,0,0.7,0.2,0.2,0.5c-0.5,0.3-2.1,0.7-4.3,3.2
				c-1.3,1.5-1.6,2.5-2.1,3.2C86.6,49.4,86.3,49.5,85.6,50.1 M86.7,59.7c0-0.4,0-1,0-1.4c0-0.2,0.1-0.5,0.3-0.7
				c0.3-0.3,0.7-0.5,0.9-0.6c0.4-0.3,0.5-1.2,0.6-1.7c0.3-1.4,0.8-6,4.2-10c1.8-2,3.5-2,5.4-2c1.8-0.1,3.8,0.5,4.7,1
				c0.8,0.4,1.2,0.6,1.5,0.4c0.3-0.2,1.1-1,1.5-1.2c0.3-0.3,0.2-0.7-0.1-0.9c-0.3-0.2-3.4-3.2-7.9-4c-4.4-0.7-8.3,0.4-9.3,0.6
				c-0.2,0-0.3,0.1-0.4,0c-0.1,0-0.5-0.2-0.3-0.5c0.2-0.3,0.7-0.7,1.1-1c0.5-0.3,2.9-2.1,5.1-2.7c0.4-0.1,0.5-0.2,0.8-0.2
				c0.3-0.1,0.6-0.8-0.1-0.9c-0.7-0.1-1-0.1-1.4,0c-0.4,0-0.6-0.2-0.3-0.5c0.3-0.3,0.8-0.6,1.7-1c2-0.8,5.4-1.4,7.1-1.5
				c2.1-0.2,2.4-0.2,3.7-0.1c1.3,0.1,2.3,0.3,2.8,0.4c4.1,0.7,8.6,2.7,11.9,5.7c3.1,3.1,7.5,8.1,7.1,19c-0.1,1.3-0.2,2-0.3,2.3
				c-0.1,0.3-0.5,0.9-0.7,0.1c-0.7-2.4-2-5.5-3.4-8.5c-0.2-0.5-0.6-0.3-0.5,0.1c0,0.2,0.2,3.2,0.2,3.6c0,0.4-0.4,1.4,0.9,3.4
				c0.5,0.8,1,1.5,1.1,2.7c0.1,1.1,0.2,1.6,0.1,1.7c0,0.1,0.1,0.5-0.4,0.4c-0.5-0.1-2.5-0.5-3.3-0.6c-0.9-0.1-6.8-0.3-9-0.1
				c-2.2,0.2-3.5,0.6-4.7,1.6c-0.3,0.3-0.7,0.5-0.8,0.5c-0.1,0-0.4,0-0.9-0.1c-0.5-0.1-1.5-0.1-2.1,0.1c-0.5,0.2-0.9,0.3-1.5,0
				c-0.8-0.5-2.1-2.3-6-2.7c-3.6-0.3-4.5-0.4-8.6-0.1C86.9,60.3,86.7,60.1,86.7,59.7 M122.6,63c0,0.1-0.1,0.5-0.1,0.6
				c0,0.1-0.2,0.2-0.3,0.2c-0.2,0-1.2,0-1.4-0.1c-0.2,0-0.3-0.1-0.3-0.3c0-0.2,0-0.5,0-0.6c0-0.1,0-0.2,0.2-0.2c0.1,0,1.2,0,1.6,0.1
				C122.5,62.7,122.6,62.9,122.6,63 M117.5,64.1c-0.3-0.3-0.8-0.7-1.1-0.9c-0.2-0.1-0.1-0.4,0.2-0.4c1.2,0,2,0.1,2.5,0.5
				c0.4,0.3,0.6,0.9,0.4,1.3c-0.2,0.5-0.4,0.4-0.7,0.3C118.5,65,117.7,64.4,117.5,64.1 M117.8,66.6c-0.2,0.1-0.9-0.1-1.1-0.2
				c-0.5-0.3-0.8-0.5-1.5-1c-0.4-0.4-1.2-0.6-1.9-0.5c-0.5,0.1-0.9,0.1-1.3,0.2c-0.4,0.1-0.5-0.3-0.3-0.4c0.1-0.1,0.9-0.8,1.8-1
				c0.2,0,0.6,0,0.7,0c0.5,0.1,1.2,0.4,1.7,0.9c0.5,0.5,1.2,1.2,1.7,1.5C117.8,66.1,118.4,66.3,117.8,66.6 M100.1,75.9
				c0.1,0.2,0.2,0.7,0.1,0.8c0,0.2-0.8,0.5-1.4-0.4c-0.6-0.9-0.3-2,0-2.5c0.6-0.7,1.4-0.2,1.3,0.1C99.8,74.8,100,75.7,100.1,75.9
				 M96.2,64.6c-0.5-0.1-1.1-0.2-2.1,0c-1.1,0.3-1.9,0.7-2.5,0.9c-0.6,0.3-1.1,0.3-1.3,0.3c-0.2,0-0.8-0.2-0.3-0.6
				c0.1-0.1,0.4-0.2,0.9-0.4c0.3-0.2,0.6-0.3,1-0.6c0.7-0.5,2.1-1.1,2.7-1.1c0.4,0,1.2,0.2,1.5,0.6C96.6,64.2,96.7,64.7,96.2,64.6
				 M86.9,64.3c0.1-0.3,0.6-1.2,1.4-1.4c0.1,0,0.5-0.1,0.9-0.1c0.4,0,0.8-0.1,1.1-0.1c0.6,0,0.7,0.4,0.3,0.7
				c-0.3,0.2-0.7,0.4-1.1,0.6c-0.6,0.4-1.1,0.8-1.5,1C87.5,65.4,86.7,65,86.9,64.3 M88.1,72.8c0.2,0.1,0.7,0.6,1.3,0.8
				c0.4,0.1,0.6,0,0.7-0.3c0.1-0.3,0.5-0.8,0-1.1c-0.5-0.3-2-1-2.9-3.4c-0.1-0.3,0.1-0.6,0.2-0.7c0.1-0.1,0.6-0.3,0.8-0.4
				c0.2-0.1,0.5,0,0.7,0.2c0.2,0.2,0.8,0.7,1.2,0.8c0.4,0,0.5-0.2,0.6-0.3c0.4-0.4,1.4-1.9,3.5-1.7c0.9,0.1,1.7,0.3,2,0.3
				c0.3,0,1.4,0.1,2-0.3c0.7-0.3,0.9,0,0.5,0.4c-0.4,0.4-0.7,0.6-0.4,1.1c0.2,0.4,0.4,0.5,0.5,0.6l0,0.2c0,0,0,0.1,0,0.2
				c-0.1,0.7-0.6,1.3-1,1.7c-0.5,0.5-1.5,0.8-1.8,0.9c-0.4,0.1-1.2,0.2-1.3,0.2c0,0-0.2,0-0.3,0l-0.2,0c0,0-0.1,0-0.2,0l-0.1,0
				l-0.1,0c0,0-0.1,0-0.2,0c-0.2,0.1-0.4,0.3-0.4,0.5c0,0.1,0.1,0.3,0.1,0.4c0.1,0.2,0.4,0.6,1,0.6c0,0,0.1,0,0.1,0
				c0.7-0.1,1.1-0.1,1.5-0.2c0.2,0,0.5-0.1,0.8-0.2c-0.1,0.1-0.2,0.3-0.3,0.4c-0.6,0.9-0.6,1.2-0.6,1.6c-0.1,0.3-0.4,0.4-0.7,0.5
				c-0.3,0.1-1.5,0.6-2.4,1.4c-0.9,0.8-2,0.8-2.9-0.2c-0.8-1-1.9-2.4-2.3-4C87.6,72.7,87.9,72.7,88.1,72.8 M97.3,94.7
				c-1.7,0.1-5.9-1.9-7.8-9.5c-0.5-2,0.6-3.7,1.3-4c0.4-0.2,0.7-0.2,0.8-0.2c0.2,0,0.9,0,0.9,0.9c0,0.7,0.6,6.6,2.1,8.7
				c0.4,0.5,0.7,0.5,0.9,0.1c0.2-0.4,0.4-1,0.5-1.2c0.1-0.2,0.6-0.6,0.7,0.1c0.3,1.4,0.8,3.2,1.1,3.9C98.1,94.2,97.9,94.7,97.3,94.7
				 M98.5,82.9c-2.1,0.5-2.6-0.4-2.8-0.6c-0.2-0.2,0.1-0.4,0.3-0.5c0.5-0.2,1.2-0.6,1.6-0.9c0.4-0.3,1.2-1.3,1.7-1.7
				c0.2-0.2,1.5-0.4,2.3,0.1c1,0.7,2.6,0.9,3.7,0.9c1,0,1.5-0.7,1.8-1.1c0.3-0.4,0.8-0.5,1.1-0.6c0.8-0.2,2-1.2,2.1-1.3
				c0.1-0.1,0.5-0.2,0.9,0.2c0.9,0.7,1.2,1.5,2,2.6c0.7,1.1,1.7,1.4,2,1.5c0.3,0.1,0.4,0.4,0.4,0.5c0,0.1-0.3,0.4-0.5,0.5
				c-0.2,0.1-0.3,0.4-2,0.2C104.9,81.9,101.1,82.4,98.5,82.9 M109.7,85.5c-0.5,0.2-2.1,0.6-2.8,0.6c-0.8,0-3.1,0.2-3.5,0.2
				c-0.5,0-1.2-0.3-1.7-0.8c-0.1-0.1-0.2-0.4,0.2-0.5c0.8,0,2.2-0.5,7,0c0.5,0,0.7,0.1,0.9,0.1C109.8,85.1,110.2,85.3,109.7,85.5
				 M128.3,67.7c-0.2,3.4-2,6.6-2.4,7.5c-1,1.8-1.3,3.1-1.5,3.8c-0.2,0.6-0.6,0.4-0.7,0.3c-0.1-0.1-0.2-0.6-0.2-0.7
				c-0.1-0.1-0.2-0.1-0.4,0.4c-0.2,0.5-0.7,1.2-1,1.6c-0.2,0.2-0.2,0.6-0.2,0.9c0,0.6,0,2.8-0.4,5.2c-0.7,4.4-2.5,6.9-3.8,8.2
				c-3,3.1-5.5,4.2-5.8,4.3c-0.4,0.2-1,0.1-1.2,0c-0.2-0.1-0.4-0.3-0.7-0.7c-0.4-0.3-0.5,0.2-0.5,0.3c0,0.1,0.1,0.6,0.2,1.1
				c0.1,0.9-0.5,1.8-1.1,2.5c-0.4,0.5-0.7,0.9-1,1.5c-0.4,0.6-0.7,1.3-0.7,2.1c0,0.1,0,0.2-0.1,0.2c-0.7,0.2-1.4-0.7-2-1.2
				c-0.4-0.4-0.8-0.7-1.1-1.1c0,0,0,0,0,0c-0.4-0.4-0.8-0.8-1.2-1.2c0,0,0-0.1-0.1-0.1c-0.1-0.2-0.3-0.4-0.4-0.5
				c0-0.1-0.1-0.1-0.1-0.2c-0.2-0.2-0.3-0.4-0.4-0.7c-1.4-2.3-1-3.6-0.2-6.2c0.6-1.8,0.2-3.6,0.1-3.9c-0.1-0.3,0.1-0.5,0.4-0.3
				c0.4,0.2,0.7,0.9,1,1.4c0.3,0.5,0.5,0.2,0.5-0.1c0.2-0.8,0.1-1.5,0-1.8c0-0.2-0.2-0.7-0.6-0.9c-0.5-0.2-1.1-0.3-1.3-0.6
				c-0.1-0.1-0.3-0.3-0.1-0.5c0.3-0.2,0.8-0.6,1.2-0.6c0.5-0.1,1.1-0.3,1.8-0.2c4.5,0.6,5.8-0.3,7.6-0.7c0.4-0.1,0.6-0.1,0.8,0
				c0.3,0.1,1,0.5,1.2,0.9c0.2,0.4,0,1.9,0.2,3c0.2,1.1,1,0.1,1.2-0.3c0.2-0.4,0.4-1.5,0.4-1.8c0-0.3,0.3-1.4,0.7-1.8
				c0.8-0.7,1.1-1.6,1.2-1.9c0.1-0.4,0.3-1.4,0.3-3c0-1.6-0.3-1.8-0.7-2.1c-0.4-0.3-0.8-0.3-1.8-1.2c-0.9-0.8-1.6-2.1-2.2-2.9
				c-0.6-0.8-1.6-1.7-2.8-2c-1.2-0.3-0.6,0.9-0.6,1.2c0,0.2,0.2,0.9-0.2,1.2c-0.4,0.3-2.6,1.9-4.4,1.6c-3-0.5-4-2.6-4.1-3.5
				c-0.2-0.9,0.8-2.7,0.9-4.2c0.1-0.6,0.1-1.8,0.1-2.7c0-0.8,0.6-1.9,0.8-2.1c0.2-0.2,0.8-0.4,1.5-0.5c0.7-0.1,1.4,0.4,1.5,1
				c0.4,2,1.1,2.6,1.4,2.7c0.2,0.2,0.7-0.2,0.9-0.3c0.2-0.1,0.6-0.6,0.5-0.8c-0.2-0.4-0.3-0.6-0.4-0.8c-0.1-0.4,0.4-0.3,0.5-0.3
				c1.3,0.8,2,1,3.4,1.2c1.4,0.1,3.6-0.5,3.9-0.5c0.2,0,0.6,0.2,0.7,0.5c0.1,0.2,0.3,0.7,0.5,0.8c0.2,0.1,0.7,0.1,0.9,0.2
				c0.3,0.1,1,0,0.9,0.7c-0.3,1.7-1.7,2.6-1.9,2.7c0,0,0,0,0,0.1c0,0,0,0,0,0c-0.2,0.1-0.5,0.3-1,0.3c-0.3,0.1-0.5,0.1-0.6,0.2
				c-0.2,0.2,0.2,0.5,0.5,0.8c0.2,0.2,1,0,1.6-0.2h0c0,0,0,0,0.1,0c1.2-0.5,1.8-1.3,2.4-2.3c0.6-1,1.3-4.3,1.4-4.9
				c0.1-0.6,0.3-0.9,0.6-1.1c0.3-0.2,1.7-0.9,1.9-0.9c0.2,0,0.4,0,0.6,0.5c0.1,0.5,0.2,3.7,0.2,4.2c0,0.5,0.3,0.5,0.4,0.4
				c0.3-0.2,0.5-0.4,0.9-0.8c0.3-0.4,0.2-1,0-1.4c-0.2-0.3-0.6-0.8-0.3-1.3c0.5-1,1.3-0.8,1.5-0.8C127.7,65,128.5,65.5,128.3,67.7"
				/>
			<g>
				<path class="st1" d="M66.4,27.6H36.7c-1.6,0-2.9,1.4-2.7,3l7.6,96.4h24.8V27.6z"/>
				<path class="st1" d="M139.6,27.6h29.7c1.6,0,2.9,1.4,2.7,3l-7.6,96.4h-24.8V27.6z"/>
			</g>
		</g>
	</g>
</g>
</svg>
