<svg xmlns="http://www.w3.org/2000/svg" width="338" height="248.524" viewBox="0 0 338 248.524">
  <g id="Group_39" data-name="Group 39" transform="translate(-716.109 -6.733)">
    <circle id="Ellipse_11" data-name="Ellipse 11" cx="120.964" cy="120.964" r="120.964" transform="translate(763.963 13.328)" fill="#ffc9cb"/>
    <g id="Group_28" data-name="Group 28" transform="translate(724.591 237.254)">
      <line id="Line_13" data-name="Line 13" x2="310.155" transform="translate(2.894 4.039)" fill="#1a1311"/>
      <path id="Path_29" data-name="Path 29" d="M1039.386,322.9H729.23c-1.6,0-2.893-1.809-2.893-4.039s1.3-4.038,2.893-4.038h310.156c1.6,0,2.894,1.809,2.894,4.038S1040.984,322.9,1039.386,322.9Z" transform="translate(-726.337 -314.823)" fill="#1a1311"/>
    </g>
    <rect id="Rectangle_20" data-name="Rectangle 20" width="143.793" height="32.938" rx="16.469" transform="translate(736.428 204.706)" fill="#ffc9cb"/>
    <rect id="Rectangle_21" data-name="Rectangle 21" width="143.793" height="32.938" rx="16.469" transform="translate(716.109 172.389)" fill="#ffc9cb"/>
    <rect id="Rectangle_22" data-name="Rectangle 22" width="143.793" height="32.938" rx="16.469" transform="translate(910.316 204.706)" fill="#ffc9cb"/>
    <rect id="Rectangle_23" data-name="Rectangle 23" width="143.793" height="32.938" rx="16.469" transform="translate(884.92 178.751)" fill="#ffc9cb"/>
    <circle id="Ellipse_12" data-name="Ellipse 12" cx="6.347" cy="6.347" r="6.347" transform="translate(1034.187 166.43)" fill="#f3b2b4"/>
    <path id="Path_30" data-name="Path 30" d="M757.142,97.819a2.894,2.894,0,0,1-.485-5.746L771.1,89.6a2.894,2.894,0,0,1,.976,5.705l-14.439,2.472A2.885,2.885,0,0,1,757.142,97.819Z" transform="translate(-8.774 -20.854)" fill="#1a1311"/>
    <path id="Path_31" data-name="Path 31" d="M780.671,56.822a2.892,2.892,0,0,1-1.125-.228l-16.43-6.944a2.894,2.894,0,0,1,2.254-5.332L781.8,51.262a2.894,2.894,0,0,1-1.128,5.56Z" transform="translate(-10.561 -9.405)" fill="#1a1311"/>
    <path id="Path_32" data-name="Path 32" d="M807.046,27.934a2.9,2.9,0,0,1-2.619-1.658L797.162,10.9A2.894,2.894,0,0,1,802.4,8.424l7.265,15.38a2.894,2.894,0,0,1-2.615,4.13Z" transform="translate(-19.508 -0.009)" fill="#1a1311"/>
    <path id="Path_33" data-name="Path 33" d="M843.785,26.215a2.894,2.894,0,0,1-2.487-4.371l8.13-13.693a2.894,2.894,0,0,1,4.978,2.955L846.275,24.8A2.891,2.891,0,0,1,843.785,26.215Z" transform="translate(-30.588 0)" fill="#1a1311"/>
    <g id="Group_38" data-name="Group 38" transform="translate(788.006 16.475)">
      <g id="Group_36" data-name="Group 36">
        <g id="Group_30" data-name="Group 30" transform="translate(107.687 51.417)">
          <path id="Path_35" data-name="Path 35" d="M999.2,91.775l18.265,61.419a7.259,7.259,0,0,1,.3,2.073v105.45H958.355V91.775Zm0,0" transform="translate(-955.855 -89.303)" fill="#beaa8f"/>
          <path id="Path_36" data-name="Path 36" d="M1019.427,262.357H955.014V88.471h45.218l18.792,63.194a9.709,9.709,0,0,1,.4,2.771Zm-59.414-4.944h54.415V154.436a4.8,4.8,0,0,0-.2-1.375L996.491,93.415H960.013Z" transform="translate(-955.014 -88.471)" fill="#1a1311"/>
        </g>
        <g id="Group_31" data-name="Group 31" transform="translate(0 51.417)">
          <path id="Path_37" data-name="Path 37" d="M944.4,260.717H814.43v-104.7a14.607,14.607,0,0,1,.443-3.562L833,91.775H962.965l-18.124,60.68a14.633,14.633,0,0,0-.442,3.562Zm0,0" transform="translate(-811.931 -89.303)" fill="#f2e1ca"/>
          <path id="Path_38" data-name="Path 38" d="M946.057,262.357H811.09V155.186a17.093,17.093,0,0,1,.516-4.158l.029-.1,18.653-62.453h135.18l-19.056,63.8a12.193,12.193,0,0,0-.356,2.916Zm-129.968-4.944H941.058V155.186a17.061,17.061,0,0,1,.517-4.158l.028-.1L958.78,93.415H834.024L816.445,152.27a12.2,12.2,0,0,0-.356,2.916Z" transform="translate(-811.09 -88.471)" fill="#1a1311"/>
        </g>
        <g id="Group_32" data-name="Group 32" transform="translate(7.427 29.381)">
          <path id="Path_39" data-name="Path 39" d="M831.783,62.325c-4.1,0-7.427,4.933-7.427,11.018s3.324,11.018,7.427,11.018H965.464V62.325Zm0,0" transform="translate(-821.857 -59.853)" fill="#fcf0e0"/>
          <path id="Path_40" data-name="Path 40" d="M967.123,86H830.942c-5.566,0-9.926-5.925-9.926-13.49s4.36-13.49,9.926-13.49H967.123ZM830.942,63.965c-2.331,0-4.927,3.509-4.927,8.545s2.6,8.545,4.927,8.545H962.125V63.965Z" transform="translate(-821.016 -59.021)" fill="#1a1311"/>
        </g>
        <g id="Group_33" data-name="Group 33" transform="translate(52.111 7.345)">
          <path id="Path_41" data-name="Path 41" d="M1005.239,64.445a16.075,16.075,0,0,1-4.789,11.437,16.447,16.447,0,0,1-11.561,4.736H979.76a1.506,1.506,0,0,0-.921.314L955.664,98.757A12.732,12.732,0,0,1,938.038,96.7a12.4,12.4,0,0,1,.933-16.646L961.836,57.44a1.48,1.48,0,0,0-1.059-2.53h-66.94l37.187-20.061a16.483,16.483,0,0,1,7.831-1.975h94.594a1.488,1.488,0,0,1,1.5,1.48V60.775a1.488,1.488,0,0,1-1.5,1.48h-25.993a2.2,2.2,0,0,0-2.217,2.19Zm0,0" transform="translate(-884.034 -30.402)" fill="#f2c9b0"/>
          <path id="Path_42" data-name="Path 42" d="M944.637,103.009a15.2,15.2,0,0,1-11.849-5.6A14.834,14.834,0,0,1,933.9,77.474L955.061,56.55H880.736l45.793-24.7a19.056,19.056,0,0,1,9.027-2.278h94.6a3.978,3.978,0,0,1,3.994,3.952V59.943a3.978,3.978,0,0,1-3.994,3.952h-25.714a18.406,18.406,0,0,1-5.52,12.9,19.085,19.085,0,0,1-13.327,5.46h-8.784L953.9,99.876A15.139,15.139,0,0,1,944.637,103.009Zm-44.3-51.4h57.138a3.986,3.986,0,0,1,3.692,2.438,3.915,3.915,0,0,1-.863,4.31L937.439,80.97a9.934,9.934,0,0,0-.749,13.354,10.253,10.253,0,0,0,14.14,1.651l23.175-17.826a4.04,4.04,0,0,1,2.456-.834h9.128a14.026,14.026,0,0,0,9.794-4.012,13.532,13.532,0,0,0,4.056-9.689,4.7,4.7,0,0,1,4.717-4.662h24.99V34.514H935.556a14,14,0,0,0-6.633,1.673Zm76.737,30.442,0,0Z" transform="translate(-880.736 -29.57)" fill="#1a1311"/>
        </g>
        <g id="Group_34" data-name="Group 34" transform="translate(185.669)">
          <path id="Path_43" data-name="Path 43" d="M1064.023,23.057h26.814a1.439,1.439,0,0,1,1.446,1.431V69.371a1.439,1.439,0,0,1-1.446,1.431h-26.814a1.438,1.438,0,0,1-1.446-1.431V24.488A1.438,1.438,0,0,1,1064.023,23.057Z" transform="translate(-1060.077 -20.585)" fill="#1a1311"/>
          <path id="Path_44" data-name="Path 44" d="M1090,72.441h-26.813a3.929,3.929,0,0,1-3.946-3.9V23.656a3.929,3.929,0,0,1,3.946-3.9H1090a3.93,3.93,0,0,1,3.947,3.9V68.539A3.93,3.93,0,0,1,1090,72.441Zm-25.76-4.944h24.709V24.7h-24.709Z" transform="translate(-1059.236 -19.753)" fill="#1a1311"/>
        </g>
        <g id="Group_35" data-name="Group 35" transform="translate(133.221 204.292)">
          <path id="Path_45" data-name="Path 45" d="M992.479,312.159l15.3-16.067,15.3,16.067Zm0-3.226" transform="translate(-989.98 -293.62)" fill="#947f62"/>
          <path id="Path_46" data-name="Path 46" d="M1022.23,313.8H991.639a2.5,2.5,0,0,1-2.295-1.492,2.45,2.45,0,0,1,.475-2.675l15.3-16.067a2.518,2.518,0,0,1,3.639,0l15.3,16.067a2.452,2.452,0,0,1,.475,2.675A2.5,2.5,0,0,1,1022.23,313.8Zm-24.8-4.944h19.018l-9.509-9.989Z" transform="translate(-989.139 -292.788)" fill="#1a1311"/>
        </g>
      </g>
      <g id="Group_37" data-name="Group 37" transform="translate(12.372 132.181)">
        <path id="Path_47" data-name="Path 47" d="M855.08,211.7c1.959,2.625,3.9,5.232,5.85,7.833,1.065,1.422,2.132,2.842,3.22,4.247a4.551,4.551,0,0,0,3.616,2.01c.785.017,1.063.465.9,1.214a10.122,10.122,0,0,1-.428,1.737c-.129.316-.5.764-.763.762-3.223-.018-6.456.028-9.664-.22-2.7-.209-4.746-1.8-6.412-3.853a64.238,64.238,0,0,1-5.656-9c-.219-.385-.44-.77-.741-1.3-.378,1.675-.725,3.195-1.064,4.718-.227,1.021-.442,2.043-.661,3.066a1.876,1.876,0,0,0,1.139,2.447c1.086.571,1.088.571.84,1.725-.1.462-.2.923-.307,1.385-.2.907-.4,1.069-1.327,1.069q-6.808,0-13.615,0c-.453,0-.908.011-1.361,0-.811-.024-1.146-.438-.987-1.206a7.867,7.867,0,0,0,.2-.873,1.8,1.8,0,0,1,1.707-1.886,2.807,2.807,0,0,0,2.1-1.995,46.094,46.094,0,0,0,1.476-5c1.089-4.731,2.1-9.479,3.141-14.221.376-1.714-.053-2.59-1.657-3.377a.891.891,0,0,1-.587-1.072q.211-.985.433-1.969a.993.993,0,0,1,1.085-.834c4.816,0,9.631-.005,14.447.007.81,0,1.107.428.936,1.229-.047.218-.116.435-.142.656a2.267,2.267,0,0,1-1.644,2.216,2.241,2.241,0,0,0-1.435,1.726c-.676,2.932-1.318,5.87-2.014,8.991.771-.624,1.405-1.132,2.033-1.648q4.479-3.679,8.956-7.363a6.628,6.628,0,0,0,.565-.5c.524-.541.469-1.131-.219-1.449a1.145,1.145,0,0,1-.661-1.533c.615-2.471.171-2.346,2.894-2.339,3.781.01,7.564,0,11.346,0,1.208,0,1.368.322,1.219,1.526-.182,1.472-.714,2.318-2.385,2.435a6.546,6.546,0,0,0-3.617,1.732c-3.418,2.836-6.857,5.647-10.287,8.468C855.392,211.4,855.253,211.543,855.08,211.7Z" transform="translate(-827.625 -196.587)" fill="#b72c3c"/>
        <path id="Path_48" data-name="Path 48" d="M901.933,202.492l-1.9,8.555h.916c2.95,0,5.9,0,8.85.013,1.095,0,1.367.353,1.134,1.386-.274,1.214-.584,2.422-.808,3.645-.147.8-.565,1.059-1.354,1.052-3.076-.028-6.152-.011-9.229-.011h-.878c-.429,1.96-.892,3.866-1.249,5.792a2.235,2.235,0,0,0,1.391,2.5,1.133,1.133,0,0,1,.694,1.509,14.715,14.715,0,0,1-.473,1.878,1.285,1.285,0,0,1-.887.706c-4.059.047-8.119.038-12.179.025-.756,0-1.064-.438-.893-1.2q1.818-8.165,3.645-16.328c.6-2.7,1.214-5.392,1.777-8.1a2.3,2.3,0,0,0-1.5-2.84,1.116,1.116,0,0,1-.733-1.541c.152-.525.258-1.064.37-1.6a.955.955,0,0,1,1.013-.817c.177-.007.353,0,.53,0H916.5c1.366,0,1.6.287,1.311,1.608-.513,2.309-1.052,4.612-1.541,6.926-.162.767-.528,1.122-1.342,1.062-.677-.049-1.36-.013-2.041-.011-.65,0-.993-.29-.961-.956.01-.2.011-.4.008-.6-.028-1.654-.789-2.575-2.445-2.631C907,202.43,904.5,202.492,901.933,202.492Z" transform="translate(-842.077 -196.588)" fill="#b72c3c"/>
        <path id="Path_49" data-name="Path 49" d="M944.965,229.81a24.743,24.743,0,0,1-11.671-2.386,13.267,13.267,0,0,1-7.193-14.282c1.284-8.017,6.5-13.711,15.285-15.736a35.5,35.5,0,0,1,17.127.109c1.034.269,1.269.606,1.048,1.594-.531,2.381-1.094,4.754-1.608,7.138a1.023,1.023,0,0,1-1.133.945c-.681-.008-1.361.007-2.042,0s-1.054-.354-1.01-1.028c.162-2.488-1.545-4.123-4.159-4.352a10.012,10.012,0,0,0-8.979,3.648,13.042,13.042,0,0,0-2.941,11.053c.638,3.672,3.789,6.421,7.869,7.051a22.943,22.943,0,0,0,9.639-.727c1.354-.37,1.749-.033,1.5,1.323-.192,1.053-.415,2.1-.6,3.155a1.347,1.347,0,0,1-1.087,1.175A42.442,42.442,0,0,1,944.965,229.81Z" transform="translate(-852.371 -196.412)" fill="#b72c3c"/>
      </g>
      <path id="Path_50" data-name="Path 50" d="M1011.841,278.724a3.2,3.2,0,0,1-3.214-3.178V217.662a3.214,3.214,0,0,1,6.427,0v57.883A3.2,3.2,0,0,1,1011.841,278.724Z" transform="translate(-860.825 -68.781)" fill="#1a1311"/>
    </g>
  </g>
</svg>
