<?xml version="1.0" standalone="no"?>
<!DOCTYPE svg PUBLIC "-//W3C//DTD SVG 20010904//EN"
 "http://www.w3.org/TR/2001/REC-SVG-20010904/DTD/svg10.dtd">
<svg version="1.0" xmlns="http://www.w3.org/2000/svg"
 width="1054.000000pt" height="1280.000000pt" viewBox="0 0 1054.000000 1280.000000"
 preserveAspectRatio="xMidYMid meet">
<metadata>
Created by potrace 1.15, written by Peter Selinger 2001-2017
</metadata>
<g transform="translate(0.000000,1280.000000) scale(0.100000,-0.100000)"
fill="#000000" stroke="none">
<path d="M2610 12790 c-65 -12 -135 -37 -215 -78 -100 -52 -228 -182 -278
-282 -221 -445 52 -954 542 -1010 47 -5 170 -10 274 -10 l187 0 0 -1009 0
-1008 -276 -634 c-260 -597 -471 -1082 -1116 -2564 -149 -341 -413 -948 -588
-1350 -631 -1449 -865 -1986 -1002 -2300 l-140 -320 6 -96 c31 -559 455 -1243
913 -1474 177 -88 747 -256 1243 -364 662 -145 1308 -225 2195 -273 305 -16
1525 -16 1830 0 887 48 1533 128 2195 273 496 108 1066 276 1243 364 458 231
882 915 913 1474 l6 96 -140 320 c-137 314 -371 851 -1002 2300 -175 402 -439
1009 -588 1350 -645 1482 -856 1967 -1116 2564 l-276 634 0 1007 0 1007 218 6
c242 6 304 17 417 72 182 88 325 266 370 460 23 96 21 241 -4 336 -60 233
-229 408 -471 491 l-65 23 -2615 1 c-1438 1 -2635 -2 -2660 -6z"/>
</g>
</svg>
