<?xml version="1.0" standalone="no"?>
<!DOCTYPE svg PUBLIC "-//W3C//DTD SVG 20010904//EN"
 "http://www.w3.org/TR/2001/REC-SVG-20010904/DTD/svg10.dtd">
<svg version="1.0" xmlns="http://www.w3.org/2000/svg"
 width="640.000000pt" height="1280.000000pt" viewBox="0 0 640.000000 1280.000000"
 preserveAspectRatio="xMidYMid meet">
<metadata>
Created by potrace 1.15, written by Peter Selinger 2001-2017
</metadata>
<g transform="translate(0.000000,1280.000000) scale(0.100000,-0.100000)"
fill="#000000" stroke="none">
<path d="M2889 12790 c-636 -57 -1163 -222 -1608 -502 -342 -215 -618 -511
-755 -810 -88 -190 -120 -340 -120 -558 0 -171 6 -221 51 -370 205 -692 1010
-1268 2013 -1441 69 -12 131 -23 138 -25 9 -3 12 -63 12 -259 l0 -255 -50 0
-49 0 -36 -74 c-46 -95 -46 -134 1 -236 l36 -79 -25 -43 c-31 -52 -87 -108
-159 -157 -51 -36 -55 -42 -93 -142 -36 -97 -39 -111 -39 -209 0 -87 5 -120
28 -195 54 -174 53 -153 16 -241 -44 -105 -45 -156 -2 -248 18 -37 32 -78 32
-91 0 -13 -14 -53 -31 -89 -37 -80 -35 -122 11 -203 23 -39 40 -57 72 -71 28
-12 72 -50 126 -110 49 -53 99 -98 122 -109 l39 -18 1 -3107 0 -3106 113 -6
c221 -11 718 -27 1045 -33 l332 -6 0 776 0 775 -114 4 -114 3 -49 41 -48 41
-2 2309 -3 2309 40 18 c23 11 73 56 122 109 53 59 98 98 125 110 32 14 49 31
74 75 44 76 45 137 7 212 -33 62 -35 89 -9 139 10 20 26 61 36 90 20 61 12
106 -32 196 -31 62 -28 96 22 236 42 117 54 207 35 266 -7 21 -32 84 -57 139
-43 97 -46 101 -98 129 -62 32 -124 94 -155 156 l-21 42 40 82 c53 105 53 143
6 242 l-36 74 -49 0 -50 0 0 249 c0 190 -3 250 -12 254 -7 2 5 8 27 12 216 38
276 50 380 76 901 224 1581 758 1768 1389 45 149 51 199 51 370 0 177 -12 257
-60 407 -144 440 -540 845 -1089 1112 -362 177 -734 281 -1200 337 -144 17
-622 26 -756 14z m486 -570 c526 -33 971 -167 1315 -396 268 -178 436 -382
514 -619 133 -409 -61 -822 -531 -1129 -290 -190 -693 -324 -1114 -371 -176
-19 -542 -19 -718 0 -680 76 -1247 357 -1524 755 -212 307 -214 674 -5 983
301 444 965 741 1743 780 133 7 166 7 320 -3z"/>
<path d="M4120 775 l0 -775 625 0 625 0 0 775 0 775 -625 0 -625 0 0 -775z"/>
</g>
</svg>
