<?xml version="1.0" standalone="no"?>
<!DOCTYPE svg PUBLIC "-//W3C//DTD SVG 20010904//EN"
 "http://www.w3.org/TR/2001/REC-SVG-20010904/DTD/svg10.dtd">
<svg version="1.0" xmlns="http://www.w3.org/2000/svg"
 width="817.000000pt" height="1280.000000pt" viewBox="0 0 817.000000 1280.000000"
 preserveAspectRatio="xMidYMid meet">
<metadata>
Created by potrace 1.15, written by Peter Selinger 2001-2017
</metadata>
<g transform="translate(0.000000,1280.000000) scale(0.100000,-0.100000)"
fill="#000000" stroke="none">
<path d="M3160 12750 c31 -78 106 -225 181 -351 37 -63 85 -151 105 -195 21
-43 46 -89 57 -102 28 -31 227 -88 227 -65 0 18 -157 248 -237 349 -44 55
-121 146 -171 202 -50 55 -109 126 -132 156 -23 31 -44 56 -46 56 -2 0 5 -22
16 -50z"/>
<path d="M5040 12489 c-19 -5 -52 -14 -72 -19 -48 -14 -129 -78 -168 -135
l-31 -46 148 7 c168 7 239 -2 323 -43 72 -35 203 -167 257 -258 l41 -70 73
-18 c84 -19 158 -65 221 -136 83 -95 108 -185 115 -417 6 -201 -3 -248 -73
-363 -25 -40 -44 -77 -42 -82 8 -22 313 108 396 170 86 64 95 146 28 279 -24
48 -55 120 -70 160 -25 71 -26 80 -26 308 l0 235 -29 43 c-42 61 -128 136
-198 174 -52 27 -85 35 -232 56 -152 22 -185 30 -284 72 -199 82 -235 94 -290
93 -29 0 -68 -5 -87 -10z"/>
<path d="M4155 12341 c-22 -10 -57 -37 -77 -59 -48 -53 -125 -215 -173 -362
-21 -63 -61 -164 -89 -225 -50 -108 -51 -112 -50 -200 1 -110 15 -163 52 -199
l29 -27 44 52 c24 28 62 70 84 93 l39 41 12 -169 c18 -248 37 -310 114 -380
44 -40 68 -42 32 -3 -12 13 -22 30 -22 38 0 8 -4 19 -9 24 -16 17 -61 185 -78
290 -19 123 -22 501 -5 589 12 59 42 106 68 106 21 0 43 41 55 103 25 126 71
157 237 157 61 0 112 4 112 8 0 18 -101 114 -135 127 -51 22 -189 19 -240 -4z"/>
<path d="M4775 12173 c-22 -14 -54 -39 -72 -54 -52 -45 -121 -62 -231 -57 -64
3 -108 10 -128 21 l-31 16 -7 -150 c-9 -171 -19 -219 -76 -353 -61 -141 -83
-276 -61 -356 5 -20 13 -1 34 85 46 192 141 352 272 458 116 94 222 135 385
147 65 5 143 18 180 30 76 25 164 35 214 26 47 -9 97 -53 143 -127 20 -33 37
-58 39 -57 8 9 -20 108 -41 144 -30 51 -135 148 -211 194 -75 45 -139 60 -264
60 -98 0 -108 -2 -145 -27z"/>
<path d="M2908 12020 c-166 -16 -264 -58 -352 -150 -43 -45 -58 -70 -75 -124
-40 -131 -46 -211 -31 -483 7 -137 11 -275 7 -305 -7 -68 -40 -135 -106 -213
-28 -32 -51 -62 -51 -65 0 -12 100 -203 155 -295 100 -171 250 -320 349 -350
55 -16 321 -22 330 -6 3 4 -24 32 -59 61 -117 94 -182 175 -240 295 -71 147
-107 254 -139 409 -14 71 -26 133 -26 138 0 19 29 5 83 -40 77 -65 102 -78
121 -63 36 30 29 136 -29 401 -19 85 -32 156 -30 158 9 9 66 -42 136 -119 115
-128 155 -156 236 -164 37 -3 114 -2 171 4 103 11 357 58 378 70 7 4 -7 52
-40 141 -46 126 -50 141 -50 230 -1 113 16 171 74 254 22 32 40 61 40 65 0 12
-357 129 -430 140 -95 15 -322 21 -422 11z"/>
<path d="M6645 11983 c-27 -14 -124 -59 -215 -100 -90 -41 -170 -79 -177 -85
-15 -12 -17 -96 -3 -133 10 -25 10 -25 47 -10 82 34 152 85 261 190 109 105
163 166 145 165 -4 -1 -30 -13 -58 -27z"/>
<path d="M5168 11814 c-37 -13 -124 -31 -195 -39 -206 -24 -240 -32 -319 -71
-41 -21 -79 -43 -84 -49 -5 -6 30 -1 78 12 219 56 454 13 572 -106 93 -94 136
-215 147 -411 7 -137 -7 -221 -70 -410 -22 -69 -40 -127 -38 -130 17 -33 383
212 446 299 60 82 95 159 95 210 0 95 -39 145 -303 384 -94 85 -193 221 -215
295 -15 49 -18 49 -114 16z"/>
<path d="M4666 11570 c-85 -15 -187 -73 -252 -143 -113 -120 -147 -221 -105
-313 35 -76 105 -109 221 -102 53 3 72 9 103 32 44 34 93 100 103 140 9 37
-21 111 -56 136 -35 25 -40 25 -40 1 0 -11 -14 -33 -31 -50 -23 -24 -39 -31
-68 -31 -50 0 -71 24 -77 91 -8 82 5 94 103 93 43 0 104 -6 136 -13 56 -12 58
-14 86 -70 16 -31 32 -78 36 -104 9 -60 24 -56 49 12 l19 52 -37 70 c-20 39
-36 72 -36 74 0 3 11 5 24 5 34 0 80 -42 106 -96 31 -63 25 -169 -14 -248 -55
-113 -240 -203 -398 -194 -32 2 -58 0 -58 -4 0 -23 157 -78 220 -78 178 0 333
88 403 229 24 49 27 66 27 154 0 73 -5 109 -17 135 -27 57 -139 168 -196 196
-59 28 -172 40 -251 26z"/>
<path d="M6630 11466 c0 -57 -27 -180 -51 -231 -31 -67 -118 -157 -208 -215
-97 -64 -284 -137 -487 -190 l-42 -10 14 -48 c8 -26 26 -92 41 -147 14 -55 27
-101 28 -103 4 -4 187 97 320 177 275 165 375 271 411 440 17 80 18 227 3 304
-13 63 -29 76 -29 23z"/>
<path d="M3883 11145 c-70 -84 -211 -288 -259 -374 -26 -47 -66 -118 -90 -157
-64 -108 -151 -285 -181 -371 -25 -72 -27 -90 -26 -233 0 -109 6 -188 20 -265
20 -111 67 -239 104 -285 l20 -25 -5 25 c-20 102 -28 262 -23 433 5 160 10
208 31 289 33 125 89 255 151 348 72 108 210 248 289 294 37 22 68 42 71 45 2
4 -5 42 -16 86 -10 44 -22 112 -25 153 -4 40 -10 75 -15 77 -4 3 -25 -15 -46
-40z"/>
<path d="M5057 10834 c-90 -61 -257 -124 -330 -124 -47 0 -178 30 -242 55 -32
14 -60 23 -62 21 -7 -7 161 -198 204 -231 68 -52 107 -66 198 -72 92 -6 204
14 274 49 44 22 46 25 43 63 -3 49 -32 223 -41 248 -5 16 -9 15 -44 -9z"/>
<path d="M5590 10694 c-260 -169 -440 -255 -617 -294 -51 -11 -137 -30 -190
-41 -287 -62 -485 -168 -659 -351 -121 -127 -153 -179 -305 -487 -93 -190
-108 -193 132 23 79 71 151 140 161 155 9 14 21 57 27 95 7 48 17 76 33 93 28
31 335 253 444 322 103 66 178 85 299 78 79 -4 112 -13 260 -68 162 -59 175
-63 278 -67 138 -5 187 7 243 64 24 23 52 61 64 83 26 52 44 185 37 276 -5 62
-39 189 -56 207 -3 3 -71 -36 -151 -88z"/>
<path d="M6628 10761 c-225 -65 -539 -260 -719 -447 -58 -61 -98 -114 -85
-114 2 0 37 19 78 43 157 93 267 147 369 181 123 42 139 43 139 16 0 -37 -137
-328 -193 -409 -76 -111 -217 -238 -413 -371 -174 -119 -277 -209 -311 -273
-17 -31 -20 -101 -11 -222 4 -48 39 -37 -322 -96 -329 -53 -574 -114 -698
-174 -111 -55 -204 -140 -246 -226 -31 -65 -55 -184 -39 -200 7 -7 13 5 18 38
10 66 26 103 65 140 61 60 179 82 345 64 354 -37 328 -40 455 45 144 95 188
113 287 120 148 11 183 -2 303 -106 115 -100 157 -125 216 -124 79 1 177 82
203 167 5 18 12 54 16 81 13 98 75 120 260 92 61 -9 124 -16 141 -16 38 0 75
37 105 104 21 48 21 58 14 247 l-7 196 27 54 c18 36 61 87 129 154 130 127
141 146 140 250 -1 68 -9 105 -58 252 -31 95 -56 190 -56 210 0 146 83 196
287 175 54 -5 100 -8 103 -5 10 10 -79 79 -145 111 -58 29 -243 75 -289 71 -6
0 -55 -13 -108 -28z"/>
<path d="M2212 10370 c-71 -66 -188 -128 -295 -156 -37 -9 -70 -21 -73 -26 -3
-5 17 -48 46 -95 60 -100 317 -464 404 -572 82 -101 208 -223 287 -277 187
-128 394 -57 591 206 31 41 55 76 53 78 -2 2 -35 -8 -73 -23 -68 -26 -74 -27
-228 -23 -131 4 -170 9 -221 27 -35 13 -63 28 -63 35 0 7 16 20 36 29 19 10
34 22 32 28 -2 6 -42 25 -88 43 -48 17 -111 51 -144 76 -86 65 -250 270 -228
284 5 3 49 -15 98 -39 175 -88 370 -133 519 -120 124 10 165 17 160 25 -2 4
-33 13 -67 20 -91 17 -199 65 -297 131 -104 69 -280 246 -340 342 -24 37 -44
67 -44 67 -1 -1 -30 -27 -65 -60z"/>
<path d="M5370 10020 c-4 -3 -28 -48 -54 -100 -54 -112 -141 -224 -261 -338
-96 -91 -233 -201 -282 -226 -32 -16 -33 -16 -33 4 0 11 17 66 38 122 72 190
137 438 112 423 -6 -4 -57 -99 -115 -213 -68 -135 -122 -229 -156 -270 -82
-99 -275 -246 -375 -285 -76 -29 -199 -49 -333 -52 -73 -3 -135 -6 -138 -8 -6
-7 96 -96 162 -140 67 -46 199 -107 231 -107 12 0 49 24 82 54 77 69 128 99
233 137 175 64 582 159 773 180 l108 12 -7 79 c-10 124 8 172 103 267 42 42
99 92 126 110 48 34 48 34 42 79 -3 25 -9 96 -13 158 l-6 113 -115 3 c-63 2
-117 1 -122 -2z"/>
<path d="M3271 9367 c-132 -160 -327 -273 -492 -284 -93 -7 -136 6 -274 82
l-99 56 -61 -25 c-33 -14 -123 -48 -200 -76 -77 -28 -205 -79 -285 -112 -138
-58 -149 -65 -217 -134 -56 -57 -82 -93 -118 -168 -26 -53 -45 -101 -43 -107
2 -7 34 26 70 72 93 118 120 142 228 193 88 43 153 64 306 101 88 21 434 36
584 25 501 -38 666 -34 790 21 112 48 110 44 51 135 -28 44 -73 120 -100 169
-80 144 -68 139 -140 52z"/>
<path d="M3581 8889 c-72 -36 -97 -66 -150 -180 -60 -129 -193 -616 -300
-1099 -63 -286 -66 -304 -97 -545 -58 -455 -36 -1007 57 -1415 56 -245 175
-645 266 -898 31 -84 53 -155 50 -159 -11 -10 -249 176 -443 348 -97 86 -455
470 -651 699 -243 283 -527 680 -688 960 -43 74 -85 144 -93 155 -13 19 -14
18 -8 -9 24 -104 145 -359 264 -556 226 -375 498 -748 805 -1105 155 -179 221
-264 213 -272 -3 -3 -45 9 -93 27 -226 83 -420 113 -733 113 -135 0 -224 -4
-240 -11 -14 -6 -18 -11 -10 -11 90 -4 514 -56 576 -71 194 -45 470 -164 637
-273 192 -125 431 -342 596 -542 92 -112 197 -279 240 -382 47 -114 260 -857
325 -1133 116 -492 220 -1128 237 -1445 11 -207 6 -921 -7 -1032 l-7 -53 125
55 c69 29 188 77 264 105 77 29 142 57 146 63 12 19 9 167 -7 377 -36 464 -69
660 -212 1245 l-75 310 5 325 c5 348 15 445 67 700 52 257 148 577 207 693 16
32 22 58 19 73 -5 19 -2 24 12 24 11 0 57 25 103 56 156 104 347 188 509 222
130 28 326 49 569 62 112 5 211 11 220 11 9 1 -22 8 -69 15 -47 7 -184 16
-305 20 -328 10 -505 -11 -725 -87 -125 -43 -140 -46 -140 -26 0 18 143 227
242 353 253 324 727 734 1278 1105 85 57 159 107 165 111 5 4 7 9 4 12 -14 14
-580 -315 -766 -446 -96 -67 -290 -239 -497 -437 -103 -100 -193 -180 -199
-178 -5 1 -63 158 -127 348 -64 189 -135 391 -158 449 -102 264 -139 314 -61
83 63 -187 149 -484 185 -639 22 -99 27 -144 28 -264 1 -170 7 -154 -129 -345
-318 -444 -502 -911 -581 -1473 -10 -73 -21 -121 -28 -119 -5 2 -18 23 -27 48
-10 24 -83 208 -162 409 -80 201 -186 478 -237 615 -51 138 -133 358 -182 490
-108 288 -189 522 -315 910 -149 459 -195 660 -244 1065 -29 241 -32 628 -6
822 50 369 165 763 304 1042 74 148 145 260 252 396 50 63 89 118 88 121 -3
10 -164 155 -196 178 l-29 21 -61 -31z"/>
<path d="M5105 8668 c-109 -69 -266 -100 -397 -79 -37 6 -75 14 -84 18 -10 4
-15 2 -13 -5 6 -18 264 -365 370 -497 53 -66 150 -172 215 -236 178 -173 258
-222 484 -296 193 -63 238 -90 358 -210 56 -56 102 -101 102 -99 0 12 -42 121
-63 161 -61 121 -131 180 -347 290 -193 99 -246 142 -328 263 -101 152 -163
331 -210 606 -10 61 -23 111 -28 113 -5 1 -31 -12 -59 -29z"/>
<path d="M1006 8332 c-23 -38 -77 -492 -77 -654 0 -65 -4 -120 -10 -123 -5 -4
-19 1 -31 9 -12 9 -28 16 -34 16 -7 0 -29 -69 -53 -167 -31 -128 -43 -197 -48
-290 l-6 -122 -31 -3 -31 -3 -9 -86 c-17 -169 49 -357 167 -472 60 -59 73 -85
53 -99 -28 -19 152 -143 305 -209 163 -71 203 -79 380 -79 142 0 159 2 159 17
0 9 -29 76 -64 148 l-64 131 -63 13 c-81 16 -225 72 -306 117 -75 42 -183 139
-183 164 0 15 12 10 67 -27 85 -57 199 -115 221 -112 9 1 28 -2 42 -8 14 -6
49 -13 78 -17 44 -6 52 -4 52 9 0 22 -87 288 -116 352 -20 47 -33 59 -121 117
-123 81 -263 222 -251 256 1 5 56 -26 121 -70 64 -44 126 -80 137 -80 25 0 23
8 -32 170 -42 121 -102 326 -110 373 -12 65 28 13 116 -153 l50 -95 8 45 c5
25 12 107 16 182 5 76 11 141 16 145 22 23 35 -70 45 -336 4 -125 10 -176 19
-179 6 -2 12 -15 12 -28 0 -29 20 -69 110 -224 104 -179 109 -186 114 -169 34
100 57 197 75 309 12 74 23 147 26 161 2 14 0 42 -5 62 -6 28 -5 37 6 37 25 0
34 -75 34 -290 0 -178 -4 -235 -22 -332 l-21 -116 28 -54 c15 -29 56 -93 90
-143 34 -49 84 -126 110 -169 l49 -79 56 61 c136 150 209 346 210 562 0 50 -3
61 -12 52 -29 -29 -35 -11 -42 116 -7 137 -21 220 -56 322 -39 114 -133 286
-150 275 -4 -2 -10 -23 -14 -45 -3 -22 -10 -40 -14 -40 -5 0 -18 17 -29 38
-34 59 -195 235 -291 316 l-87 75 -8 -42 c-14 -71 -15 -72 -47 -29 -95 131
-517 522 -534 494z"/>
<path d="M4240 7083 c16 -49 36 -124 45 -168 16 -76 34 -379 35 -568 0 -101
-11 -115 -62 -77 -37 27 -41 22 -60 -69 -15 -76 -18 -483 -4 -544 8 -37 8 -38
-17 -32 -26 7 -26 7 -15 -32 14 -53 71 -165 127 -248 25 -38 103 -127 172
-196 109 -109 138 -132 204 -164 86 -40 187 -69 284 -79 l64 -7 -7 73 c-9 96
-43 264 -62 299 -8 16 -39 45 -70 66 -196 134 -336 255 -399 348 -69 99 -51
91 196 -92 92 -68 171 -123 178 -123 13 0 8 29 -35 199 -39 149 -71 250 -86
268 -5 7 -53 35 -106 63 -54 29 -106 60 -117 71 -19 19 -19 19 8 19 15 0 62
-7 103 -16 42 -8 78 -14 80 -11 2 2 -1 17 -6 33 -26 81 -70 246 -70 266 0 21
1 20 31 -8 43 -41 137 -183 194 -291 27 -51 52 -93 57 -93 4 0 8 13 8 28 0 42
29 134 40 127 6 -4 10 -74 10 -162 l0 -156 70 -136 c38 -75 81 -163 95 -195
14 -33 29 -55 33 -50 5 5 21 43 37 84 15 41 34 84 41 94 13 19 14 19 20 1 4
-10 2 -95 -4 -189 -7 -94 -12 -198 -12 -231 1 -64 26 -146 48 -153 16 -5 67
105 94 207 19 68 21 105 22 336 1 287 -8 345 -74 491 -32 70 -41 73 -84 25
-11 -12 -23 -21 -27 -21 -4 0 -20 37 -35 83 -46 142 -135 301 -221 396 -42 48
-63 49 -63 3 0 -15 -4 -33 -8 -39 -5 -9 -95 78 -275 266 -236 247 -383 391
-400 391 -2 0 8 -39 23 -87z"/>
<path d="M6678 6630 c-181 -31 -360 -135 -434 -252 -28 -43 -46 -40 -58 8 -10
39 -26 19 -89 -109 -99 -198 -133 -364 -125 -600 3 -76 8 -140 11 -144 8 -8
136 66 218 126 l67 49 11 89 c17 128 30 179 68 268 36 85 90 175 103 175 20 0
19 -21 -3 -71 -13 -30 -29 -79 -35 -109 -10 -46 -32 -213 -32 -244 0 -4 10 -6
23 -3 20 4 302 128 372 163 23 11 43 39 80 111 61 118 154 223 199 223 l28 0
-24 -32 c-40 -52 -120 -206 -116 -223 2 -12 30 -4 138 41 246 102 340 131 340
105 0 -5 -9 -13 -20 -16 -11 -3 -20 -11 -20 -16 0 -5 -8 -13 -18 -17 -9 -4
-41 -25 -70 -47 -66 -50 -62 -52 119 -60 135 -7 174 -15 154 -33 -6 -5 -100
-19 -210 -31 -110 -12 -219 -26 -243 -32 -31 -7 -79 -37 -175 -112 -73 -57
-152 -117 -175 -132 -39 -26 -42 -30 -27 -41 23 -17 163 -41 334 -59 131 -13
175 -24 159 -41 -4 -3 -161 -8 -349 -11 l-344 -6 -90 -72 c-94 -75 -173 -130
-270 -189 l-57 -34 43 -32 c81 -58 200 -109 313 -135 118 -26 342 -53 353 -42
3 4 -4 18 -17 32 -13 14 -21 28 -18 31 4 3 37 10 75 14 118 15 274 51 368 84
91 33 235 109 235 125 0 5 -13 11 -30 15 -39 7 -38 29 3 55 89 55 346 367 334
405 -2 6 -16 12 -30 14 -15 2 -27 9 -27 16 0 6 34 50 76 96 163 184 383 465
371 476 -1 1 -81 10 -177 19 -119 11 -241 16 -383 13 -225 -3 -233 -1 -180 48
15 14 23 28 17 33 -12 10 -246 48 -387 62 -89 9 -116 8 -159 -5 -29 -8 -54
-13 -57 -10 -2 2 3 20 12 39 l17 35 -73 -1 c-39 -1 -93 -5 -119 -9z"/>
<path d="M1310 5482 c0 -5 16 -30 36 -54 37 -44 61 -85 53 -92 -2 -3 -31 2
-64 10 -108 25 -213 28 -326 9 -111 -18 -254 -59 -264 -76 -4 -5 14 -32 39
-60 25 -28 46 -55 46 -59 0 -4 -30 -20 -67 -35 -69 -27 -690 -339 -738 -371
-14 -9 -24 -18 -23 -19 2 -2 79 -11 173 -20 240 -23 338 -40 459 -80 113 -37
269 -105 280 -123 8 -13 -31 -42 -59 -42 -32 -1 46 -64 124 -101 135 -64 236
-90 379 -99 74 -4 139 -13 145 -19 8 -8 4 -18 -13 -36 l-23 -25 51 0 c60 0
227 24 322 46 128 30 294 135 412 263 57 61 138 190 138 219 0 26 -318 110
-363 96 -12 -4 -67 -39 -122 -79 -128 -93 -214 -146 -295 -184 -149 -70 -177
-41 -46 47 81 54 258 197 264 213 4 11 -111 14 -308 10 l-145 -4 -74 -69 c-90
-83 -157 -132 -166 -118 -7 12 4 34 63 123 25 37 42 70 39 73 -3 3 -74 11
-156 17 -83 6 -151 14 -151 18 0 34 227 89 374 89 l71 0 -45 43 c-25 23 -65
59 -89 79 -23 20 -40 41 -37 47 9 13 91 -12 186 -57 91 -42 152 -46 335 -20
66 10 151 21 190 25 l70 8 -95 61 c-52 34 -136 85 -187 115 -50 29 -89 57 -86
62 19 31 220 -36 379 -125 60 -33 132 -71 159 -84 48 -22 232 -60 242 -50 7 7
-161 170 -231 222 -33 26 -86 58 -116 72 -86 38 -277 99 -370 117 -106 20
-370 33 -370 17z"/>
<path d="M6220 4913 c-164 -26 -243 -49 -358 -104 -67 -32 -143 -75 -168 -96
-58 -47 -194 -201 -194 -219 0 -11 38 -14 197 -14 l196 0 101 50 c112 55 203
81 381 110 143 24 185 25 185 6 0 -8 -54 -32 -149 -65 -159 -54 -275 -103
-285 -119 -6 -10 83 -37 268 -79 l111 -25 153 17 c151 18 275 16 294 -3 15
-15 -14 -26 -117 -47 -49 -10 -96 -21 -103 -25 -7 -3 20 -16 60 -29 98 -31
168 -61 168 -73 0 -19 -38 -20 -266 -4 -130 9 -239 15 -241 12 -6 -5 79 -74
172 -139 88 -61 129 -96 121 -104 -7 -8 -162 46 -230 80 -64 31 -155 90 -218
140 l-38 30 -174 -6 c-96 -3 -182 -9 -190 -14 -14 -8 -11 -16 19 -58 54 -77
150 -170 260 -253 55 -41 102 -77 104 -79 2 -1 1 -6 -2 -10 -10 -9 -152 34
-223 67 -101 48 -205 122 -307 218 l-96 90 -58 -13 c-32 -8 -63 -14 -69 -15
-5 0 -19 -6 -29 -14 -18 -13 -18 -15 10 -52 87 -116 412 -405 558 -498 l29
-18 -3 39 c-2 21 1 37 6 36 6 -1 55 -18 111 -38 68 -24 133 -38 202 -45 118
-12 487 -18 497 -8 4 4 -5 22 -19 41 -14 19 -26 39 -26 45 0 30 342 91 514 92
l28 0 -26 34 c-33 44 -33 53 2 60 45 10 222 25 297 26 l70 1 -40 31 c-22 17
-92 83 -156 147 -160 161 -177 191 -106 191 87 1 56 38 -119 142 -185 110
-267 152 -379 192 -19 7 -19 8 4 27 13 10 31 19 42 19 41 0 24 21 -59 68 -224
128 -340 168 -576 197 -46 6 -48 8 -44 36 4 28 3 29 -31 28 -20 -1 -47 -4 -61
-6z"/>
</g>
</svg>
