<?xml version="1.0" encoding="iso-8859-1"?>
<!-- Generator: Adobe Illustrator 19.0.0, SVG Export Plug-In . SVG Version: 6.00 Build 0)  -->
<svg version="1.1" id="Capa_1" xmlns="http://www.w3.org/2000/svg" xmlns:xlink="http://www.w3.org/1999/xlink" x="0px" y="0px"
	 viewBox="0 0 463.02 463.02" style="enable-background:new 0 0 463.02 463.02;" xml:space="preserve">
<path d="M460.814,450.217l-79.678-79.678c3.187-11.489,4.475-26.156,0.794-38.056c4.603-2.832,9.115-5.578,13.113-8.012
	c25.425-15.475,25.496-15.668,26.687-18.895c13.452-36.476-8.095-72.813-14.705-82.686c2.626-13.947,1.49-29.727-6.002-46.393
	c26.697-27.214,38.105-64.952,29.77-98.773c-0.667-2.707-2.78-4.82-5.487-5.487c-25.433-6.269-53.729-1.358-77.923,13.459
	c-11.394-3.436-22.497-4.198-33.03-2.291c-7.28-21.924-26.18-33.672-32.361-36.09c-3.099-1.214-5.483-0.453-6.94,0.4
	c-6.777,3.973-15.669,6.172-24.268,8.299c-13.604,3.365-27.63,6.843-33.838,17.989c-7.097-0.709-14.636-0.876-22.032-0.711
	c-6.473-11.876-14.676-22.849-24.444-32.618C137.114,7.322,90.473-7.008,48.752,3.275c-2.707,0.667-4.82,2.781-5.487,5.487
	c-10.283,41.723,4.048,88.362,37.4,121.716c0.563,0.563,1.134,1.117,1.706,1.671c-27.548-4.552-55.247-0.432-78.42,12.061
	c-2.453,1.323-3.971,3.897-3.94,6.685c0.479,42.97,26.021,84.542,66.655,108.493c2.002,1.181,4.055,2.307,6.116,3.393
	c3.608,5.18,7.966,10.224,13.205,14.728c-0.604,1.769-1.123,3.614-1.521,5.547c-3.723,18.089,2.712,38.795,19.123,61.544
	c0.612,0.848,1.19,1.674,1.749,2.487l-31.132,31.132c-2.929,2.929-2.929,7.678,0,10.606c1.465,1.464,3.385,2.197,5.304,2.197
	s3.839-0.732,5.304-2.197l28.369-28.369c2.283,4.729,3.747,8.82,5.114,12.649c2.8,7.845,5.445,15.255,13.576,23.387
	c11.171,11.172,26.008,12.798,41.716,14.519c5.186,0.568,10.547,1.156,15.861,2.112c1.961,0.353,3.994,0.742,6.085,1.143
	c9.247,1.771,20.279,3.885,31.577,3.885c18.012-0.001,36.694-5.378,49.857-26.083c2.804,0.232,5.62,0.38,8.469,0.38
	c3.622,0,7.295-0.229,11.049-0.765c4.259,5.948,11.481,8.956,21.539,8.956c0.654,0,1.321-0.013,2-0.038
	c9.156-0.344,19.441-2.823,29.387-5.221c6.054-1.459,11.772-2.837,16.559-3.552c3.346-0.5,6.247-2.612,8.829-6.408l75.406,75.406
	c1.465,1.464,3.385,2.197,5.304,2.197s3.839-0.732,5.304-2.197C463.743,457.895,463.743,453.146,460.814,450.217z M408.29,298.568
	c-3.4,2.352-12.709,8.018-21.045,13.091c-11.269,6.859-21.368,13.046-29.504,18.274c0.166-0.587,0.331-1.175,0.496-1.761
	c2.943-10.461,5.986-21.278,10.735-30.757c4.495-8.973,7.068-17.624,7.753-25.896c8.713-6.304,17.843-16.563,24.034-29.546
	C407.493,255.279,415.297,277.206,408.29,298.568z M417.198,85.835c4.719,25.747-3.704,53.761-22.588,75.509
	c-5.096-14.881-5.978-28.094-5.827-36.489l11.448-11.448c2.929-2.929,2.929-7.678,0-10.606c-2.93-2.929-7.678-2.929-10.607,0
	l-4.152,4.152c-3.208-2.762-10.438-8.55-20.285-13.816C381.988,85.348,400.246,82.743,417.198,85.835z M351.107,102.993
	c10.603,4.535,18.958,10.72,23.069,14.072c-0.973,9.95-1.612,35.296,12.073,63.242c10.07,20.566,7.35,38.271,3.294,49.502
	c-3.516,9.736-9.046,17.656-14.593,23.39c-0.266-0.904-0.558-1.802-0.877-2.694c-4.938-13.798-15.183-22.656-22.208-27.378
	c6.268-2.745,12.446-8.022,15.034-17.435c5.595-20.349-7.313-34.148-20.98-48.758c-10.055-10.749-21.452-22.932-29.901-40.578
	c-2.676-5.587-5.86-10.598-9.484-15.003C320,95.555,334.948,96.08,351.107,102.993z M139.563,317.834
	c-17.328-14.999-24.669-45.425-19.158-79.404c2.033-12.536,0.8-22.479-0.287-31.251c-1.454-11.727-2.603-20.99,3.927-34.229
	c15.226-30.874,47.026-45.753,71.789-46.804c7.777-0.334,14.695,0.746,20.217,3.003c-18.521,3.421-36.744,13.483-48.847,27.705
	c-12.644,14.855-17.265,32.898-13.012,50.804c0.881,3.711,2.061,7.122,3.469,10.278c-8.704,7.522-15.966,21.462-18.822,36.787
	c-2.509,13.461-3.698,39.655,16.518,63.84c2.598,3.108,5.471,6.02,8.58,8.731C154.774,327.027,146.519,323.856,139.563,317.834z
	 M255.805,94.157c14.657-0.81,34.627,3.499,46.684,28.677c9.447,19.728,22.217,33.378,32.477,44.347
	c14.075,15.046,20.697,22.799,17.472,34.534c-1.679,6.105-6.55,8.071-9.82,8.702c-5.059-12.876-13.662-21.642-24.512-24.804
	c-0.835-7.734-3.159-14.882-6.992-21.406c-11.644-19.825-37.246-32.458-72.339-35.806c-5.283-7.617-13.704-12.918-24.3-15.501
	C223.57,102.413,241.49,94.954,255.805,94.157z M233.466,143.001c32.196,2.341,55.179,12.57,64.713,28.802
	c5.115,8.707,6.481,19.293,4.133,31.617c-4.676-10.592-11.666-20.113-20.52-27.65c-12.956-11.026-28.444-16.374-43.598-15.055
	c-30.993,2.695-40.918,21.73-44.076,32.836c-3.955,13.91-1.414,30.336,5.582,42.023c-12.888-4.583-26.693-13.608-30.915-31.384
	c-3.998-16.835,3.145-29.749,9.841-37.616C191.632,151.292,214.186,141.598,233.466,143.001z M223.01,231.52
	c0-9.098,7.402-16.5,16.5-16.5s16.5,7.402,16.5,16.5s-7.402,16.5-16.5,16.5S223.01,240.619,223.01,231.52z M217.831,254.852
	c0.064,0.006,0.125,0.013,0.182,0.019c0.152,0.031,0.307,0.049,0.46,0.07c5.582,5.019,12.958,8.079,21.038,8.079
	c17.369,0,31.5-14.131,31.5-31.5s-14.131-31.5-31.5-31.5c-13.919,0-25.751,9.079-29.905,21.623c-2.541-7.096-3.37-15.863-1.06-23.99
	c3.682-12.949,14.384-20.555,30.947-21.996c11.136-0.963,22.701,3.128,32.576,11.535c12.402,10.556,20.53,26.664,21.743,43.087
	c2.612,35.388-14.723,48.069-41.554,56.223c-28.945,8.794-46.364-2.806-54.168-10.504c-8.665-8.547-13.635-20.048-13.768-30.743
	C196.798,251.734,209.965,254.042,217.831,254.852z M166.866,308.942c-16.273-19.468-15.307-40.605-13.281-51.472
	c2.206-11.839,7.351-21.458,12.23-26.604c1.398,1.636,2.875,3.155,4.409,4.579c-3.419,17.225,3.278,37.369,17.332,51.232
	c11.956,11.794,27.652,17.909,44.972,17.908c7.768,0,15.864-1.231,24.092-3.731c25.792-7.837,54.875-22.875,52.258-69.693
	c4.721-10.476,7.704-20.324,8.934-29.504c8.135,4.72,11.703,15.367,13.172,21.936c6.093,27.225-4.125,68.567-31.772,90.625
	c-19.126,15.26-45.091,23.229-71.256,21.863C202.434,334.747,180.168,324.856,166.866,308.942z M254.384,70.577
	c8.295-2.052,16.834-4.164,24.566-7.946c4.983,3.012,16.251,11.156,21.044,25.189c-1.726,0.763-3.431,1.61-5.114,2.532
	c-11.19-8.082-24.832-12.015-39.909-11.172c-4.124,0.229-8.235,0.812-12.263,1.7c-2.474-1.42-5.307-2.602-8.413-3.577
	C239.089,74.367,246.586,72.506,254.384,70.577z M220.294,89.448c-10.039,5.677-18.18,13.258-22.677,21.664
	c-0.803,0.01-1.602,0.012-2.419,0.047c-29.186,1.238-66.664,18.773-84.606,55.156c-2.161,4.382-3.667,8.484-4.691,12.371
	c-1.16-4.92-1.463-10.031-0.894-15.381c3.577-33.622,40.171-64.825,47.804-70.996C172.096,89.155,201.055,86.716,220.294,89.448z
	 M56.835,16.845c35.494-6.973,74.569,5.979,103.026,34.437c7,6.999,13.101,14.678,18.227,22.899
	c-14.818,1.194-26.748,3.152-29.688,3.658c-1.183,0.203-2.3,0.688-3.257,1.412c-0.497,0.376-3.704,2.833-8.341,6.954l-45.531-45.53
	c-2.93-2.929-7.678-2.929-10.607,0c-2.929,2.929-2.929,7.678,0,10.606l45.302,45.301c-8.221,8.477-17.541,19.59-24.671,32.292
	c-3.476-2.824-6.84-5.821-10.023-9.004C62.814,91.414,49.863,52.34,56.835,16.845z M15.171,155.328
	c22.964-10.987,50.567-12.979,77.279-5.631c-1.111,3.919-1.921,7.919-2.355,11.978c-0.006,0.059-0.008,0.117-0.014,0.176
	c-9.326,4.773-14.139,11.692-17.001,18.902l-18.606-10.967c-3.568-2.102-8.165-0.916-10.27,2.653
	c-2.104,3.568-0.916,8.166,2.652,10.27l22.182,13.074c-1.973,9.518-3.543,15.599-9.202,19.621c-1.905,1.352-3.091,3.609-3.173,5.944
	c-0.052,1.454,0.804,7.426,3.361,15.374C33.579,215.967,16.991,186.208,15.171,155.328z M72.213,224.573
	c7.748-7.497,9.785-17.366,11.608-26.204c1.675-8.114,3.129-14.104,6.999-18.52c2.01,10.348,6.819,20.072,14.397,29.061
	c0.005,0.038,0.009,0.075,0.014,0.113c1.011,8.155,2.056,16.587,0.366,27.005c-1.021,6.296-1.631,12.501-1.858,18.563
	c-3.387,2.061-7.071,5.22-10.363,9.374C79.838,250.895,73.955,232.537,72.213,224.573z M198.358,399.532
	c-2.148-0.412-4.237-0.812-6.253-1.174c-5.821-1.047-11.444-1.663-16.881-2.259c-13.577-1.488-25.302-2.772-32.743-10.215
	c-5.746-5.746-7.461-10.551-10.057-17.823c-2.874-8.051-6.45-18.071-16.671-32.238c-13.657-18.932-19.396-36.133-16.595-49.745
	c1.034-5.025,3.094-8.924,5.251-11.85c2.548,23.181,11.335,42.829,25.336,54.948c6.929,5.998,14.889,9.968,23.519,11.852
	c3.093,12.899,10.189,25.118,19.541,33.591c11.82,10.71,26.573,15.275,42.652,13.204c16.998-2.19,30.769-0.068,44.084,1.983
	c0.125,0.019,0.25,0.038,0.375,0.057C243.735,408.206,219.771,403.634,198.358,399.532z M261.827,374.981
	c-13.679-2.107-29.186-4.496-48.284-2.035c-25.641,3.306-39.325-16.507-44.319-30.791c4.447-0.292,8.996-1.06,13.612-2.332
	c13.015,6.478,28.154,10.392,44.338,11.238c2.179,0.114,4.355,0.17,6.53,0.17c27.541,0,54.515-9.052,74.863-25.288
	c27.394-21.857,39.459-57.771,39.086-87.244c4.571,3.804,9.672,9.427,12.343,16.987c3.596,10.179,2.104,21.959-4.436,35.01
	c-5.389,10.758-8.629,22.275-11.763,33.414c-4.968,17.66-9.259,32.912-20.432,40.578
	C299.83,380.837,283.058,378.252,261.827,374.981z M362.288,377.223c-5.051,0.84-10.573,2.171-16.389,3.573
	c-8.955,2.159-20.913,5.041-29.038,4.827c4.793-2.185,9.77-4.984,14.991-8.567c8.337-5.72,13.78-13.894,17.845-23.117
	c2.788-2.63,10.172-7.591,18.842-13.101C370.963,354.703,365.671,372.852,362.288,377.223z"/>
<g>
</g>
<g>
</g>
<g>
</g>
<g>
</g>
<g>
</g>
<g>
</g>
<g>
</g>
<g>
</g>
<g>
</g>
<g>
</g>
<g>
</g>
<g>
</g>
<g>
</g>
<g>
</g>
<g>
</g>
</svg>
