<?xml version="1.0" encoding="UTF-8"?>
<svg width="1992.7278" height="1898.7670999999998" xmlns="http://www.w3.org/2000/svg" xmlns:svg="http://www.w3.org/2000/svg">
 <title>Uncoloured Rose</title>
 <defs>
  <filter id="filter3186" color-interpolation-filters="sRGB"/>
 </defs>
 <metadata id="metadata7">image/svg+xml</metadata>
 <g>
  <title>Layer 1</title>
  <g id="layer2" display="inline">
   <path stroke="#ffffff" d="m91.88013,1386.91846c-2.14209,-17.69873 -10.04102,-38.78162 -5.84058,-53.09632c12.81519,-43.67151 55.75659,-59.57861 88.6709,-138.05041c-40.43433,-59.7179 -66.70801,-97.11145 -101.18506,-130.57556c-31.20581,-30.28907 -69.29834,-57.83301 -72.94873,-90.43396c-4.1936,-37.45081 12.76977,-21.20484 108.29419,-152.78845c-30.41455,-25.10486 -58.03809,-83.47925 -54.44702,-128.33301c7.14624,-89.25879 70.99487,-208.88294 96.10962,-290.15564c17.32495,-56.06458 -5.03491,-74.2002 9.31006,-131.58899c45.69751,1.99719 110.4707,14.74145 159.05542,2.74707c86.84497,-21.44006 151.63525,-75.77124 174.3894,-83.45349c43.01245,-14.52222 71.61841,-0.23145 104.0686,6.37146c188.9729,-49.73291 244.2461,-200.47925 356.80713,-197.51819c86.83789,2.28442 102.65308,135.78748 165.66065,142.2981c78.698,-54.82764 149.4519,9.50366 223.00439,31.85778c9.80054,-38.35864 24.58252,-70.90564 67.96314,-70.08715c0,0 45.2998,-51.04004 76.45898,-55.2201c11.98999,-1.60852 33.98145,12.74304 33.98145,12.74304c0,0 35.57153,-29.83422 57.34399,-31.85778c11.14575,-1.03589 27.61011,4.24768 27.61011,4.24768c17.23486,-18.74854 48.01379,-17.18115 76.45874,-19.11463c42.48083,-3.64026 77.14258,-8.3977 99.82104,-14.86694c-3.19006,23.53723 -10.73913,44.8949 2.1239,76.45874c15.01331,31.41492 13.04834,55.55322 8.49536,78.5824c-1.401,40.38305 -1.86718,82.63562 -16.99084,95.57348c6.66809,29.02588 10.41113,58.05188 -19.11462,87.07788c13.02002,45.84754 -114.05774,152.00477 -135.92652,155.04114c-14.30774,73.17151 -8.86377,144.14832 2.12378,214.50916c23.37158,74.33349 76.25855,108.4226 63.7157,133.80273c-14.50159,29.3429 -80.69605,62.31641 -121.05957,93.44946c4.99585,14.45252 14.90454,21.53602 25.48608,27.61011c27.06677,-95.09607 143.55738,-79.24365 176.27967,-67.96326c38.77966,-16.60571 56.52209,-2.82434 70.08728,16.99073c54.11889,23.91333 106.56372,41.13012 155.04113,42.47705c-36.2511,40.81518 -82.1394,78.12585 -89.20178,129.55493c0.8711,18.59973 -18.24829,53.11267 -44.60083,70.08716c-7.1134,21.21924 -10.12585,44.78186 -36.10559,55.22021c-22.22705,20.34351 -38.55652,44.61878 -84.9541,48.84864c-14.9928,12.48608 -22.52356,26.21594 -53.09631,36.10547c17.27111,10.36853 32.80261,23.17248 36.10559,53.09631c32.96057,32.60522 37.4873,65.55285 33.98156,91.32556c15.74781,20.53064 23.89576,41.06128 25.48621,61.5918c4.86279,34.32007 7.65039,68.29431 -4.24768,99.82104c17.56067,90.47962 -9.02942,134.68457 -40.35315,178.40357c-10.01672,-11.292 -16.31677,-23.823 -42.47705,-29.73389c-38.07007,4.49975 -68.80725,-3.83276 -95.57337,-19.11475c-30.49731,0.9021 -78.98486,-4.25561 -104.06884,-22.30041c-60.01172,11.63879 -76.89502,-16.53357 -101.94483,-37.16736c-51.5747,-16.43884 -84.34302,-50.11682 -101.94482,-97.69714c-20.98267,-16.28296 -31.62183,-32.5658 -44.60108,-48.84864c6.2627,20.45789 16.25123,43.39978 6.37183,53.09632c5.36792,24.07031 6.46021,48.1405 -10.61938,72.21093c7.21386,25.34583 15.61718,50.49341 6.37158,78.58252c12.41284,31.3169 3.13476,59.29663 -21.23853,84.95411c1.37158,22.57324 -3.5227,50.36804 -19.11474,87.078c-39.04663,-51.76416 -114.52784,-86.21643 -190.08472,-129.55505c-27.68701,-10.07764 -43.66357,-27.1814 -57.34399,-45.66285c-43.23536,-26.54809 -69.01612,-52.03442 -62.65381,-79.64441c-25.20948,-17.0603 -35.13672,-81.51599 -12.74292,-101.94494c-24.16553,0.40161 -42.97193,-1.87647 -61.5918,-4.24768c-56.12085,45.05151 -142.86328,72.4342 -259.11011,80.70642c-9.86157,0.70178 -15.48144,-6.5116 -21.23828,-12.74317c-9.15747,10.17298 -12.50561,20.87403 -36.10571,29.73389c-13.60376,85.1958 -76.07129,109.06861 -116.81177,112.56421c-42.9397,32.94397 -83.7749,44.84448 -121.05957,21.23853c-8.29321,5.1538 -15.96094,36.92871 -87.07788,25.4862c-25.08106,11.41602 -45.99951,30.04736 -91.32568,6.37158c2.83642,-25.20117 12.74169,-47.57483 -4.24781,-80.70642c-23.52319,-99.84399 -7.6958,-99.52344 -2.12378,-125.30725c-21.0581,-30.44934 -25.66577,-61.58423 -12.74316,-93.44946c-3.43457,-43.20984 -1.97266,-84.09998 21.23852,-114.68811l0.00001,0z" id="path3051" fill="#ffffff"/>
  </g>
  <g id="layer3" display="inline">
   <path d="m1353.44824,179.50842c11.91699,-26.73364 15.18848,-59.64282 64.77759,-59.46789c26.55249,-16.32666 55.87988,-60.40223 79.64429,-48.84864c46.65234,20.10779 72.76416,-40.37841 118.93579,-18.05261c21.07287,-32.69006 105.95642,-12.2124 148.66968,-33.98169c-1.71497,19.12378 -12.55311,36.72718 1.06189,58.40589c5.50024,39.61828 10.56274,59.68139 1.06189,78.58252c1.41149,31.7135 4.76013,64.58948 -7.43348,88.13989c9.14344,37.31457 4.6316,67.80127 -20.17663,88.13989c-1.00647,61.51429 -73.90418,92.21814 -111.5022,138.0503c19.68713,-44.86414 31.45874,-108.28577 28.672,-226.19019c-136.37781,14.54126 -217.58777,-5.35986 -303.71082,-64.77747z" id="path3054" fill="#000000"/>
   <path d="m1597.69141,967.45764c36.83178,-59.40173 88.18664,-86.64538 164.59851,-58.406c35.36157,-11.56897 56.58447,1.09985 72.21093,23.36242c20.81641,3.38391 95.96192,27.74732 126.36927,31.85779c-40.78552,34.33557 -58.61475,66.01233 -67.96326,103.00684c-7.91199,31.3092 -35.57373,45.17968 -47.78662,73.27282c-21.18933,48.74109 -28.38354,34.09449 -37.16748,48.84864c-16.98462,28.52868 -36.70642,50.99804 -77.52063,56.2821c-23.00842,15.0354 -46.01685,41.25549 -69.02527,32.9198c-4.95557,-17.69873 -15.57483,-36.81348 -31.85779,-57.34399c25.66089,-34.49317 27.547,-86.56043 29.36524,-132.54541c1.80627,-45.68763 3.64123,-85.35755 -0.69324,-100.01648c-2.59058,-8.76136 -31.87146,-17.55164 -60.52966,-21.23853z" id="path3056" fill="#000000"/>
   <path d="m1616.45239,1234.31494c19.88526,23.77832 39.61524,47.55664 45.80457,71.33496c39.05627,14.98804 41.80078,38.04517 45.80469,60.82251c8.05896,14.80774 20.22106,12.17713 21.02502,57.81897c33.33704,65.91931 24.05725,76.68726 25.5304,101.37085c5.64868,23.43238 14.41943,42.40442 6.75805,84.8512c-1.38842,42.81555 6.61206,83.07056 -15.01794,131.40661c-27.25,-6.0885 -58.81812,-1.38159 -78.84387,-25.53039c-22.92346,13.07483 -47.16504,6.37659 -72.08582,-10.51257c-31.2876,10.29699 -62.5747,0.03356 -93.86206,-11.26343c-46.46167,4.81262 -67.65185,-17.94373 -93.11108,-36.04297c-35.10596,-22.44324 -77.20557,-22.15723 -97.61646,-92.36011c-37.33789,-16.01184 -42.61035,-37.36792 -57.81885,-57.06799c79.42994,-27.35742 164.88013,-114.38477 227.52124,-135.91211c70.69873,6.90283 106.82447,-58.6333 135.91211,-138.91553z" id="path3058" fill="#000000"/>
   <path d="m1072.8042,1463.33801c27.04663,17.26722 116.1416,32.42676 153.18262,53.31348c12.21289,18.5221 8.71777,37.04419 7.50903,55.56628c-1.90527,22.00196 11.30102,40.22596 -12.01441,67.58045c14.22169,36.54663 10.06348,61.60559 9.01075,88.60571c0.97827,25.78064 -1.59546,51.5614 -16.51978,77.34216c1.75708,22.96619 -2.82593,44.34717 -9.01074,65.32788c-20.89526,-14.90564 -41.95166,-39.37353 -64.44336,-53.36694c-42.4563,-26.41455 -86.17651,-42.45227 -116.52222,-75.78699c-20.28369,-5.71325 -41.75805,-5.86853 -56.31738,-38.29565c-19.2251,-8.13452 -38.71973,-13.44128 -54.06421,-62.32434c-17.43677,-25.29273 -31.95556,-52.87793 -21.77612,-99.86902c52.28491,5.10742 65.60791,1.86572 92.36011,1.50183c44.73779,-13.44055 66.89843,-54.54236 88.60571,-79.59485z" id="path3060" fill="#000000"/>
   <path d="m92.88623,1416.78235c-3.23804,23.68921 -11.9707,41.09875 -2.25269,79.59485c-9.35888,26.33227 -14.65722,61.52685 5.25635,97.61645c-9.70239,25.16138 -6.31201,88.71448 5.25611,112.63428c10.59912,32.77368 9.41015,60.83203 0,85.60205c35.45898,14.98206 50.78149,-4.55542 73.58764,-11.26343c45.06836,7.31739 72.70337,-5.70422 93.86206,-26.28125c41.80762,25.38306 80.02246,4.05628 117.89063,-21.776c59.52319,-8.43249 88.08642,-37.91784 97.61621,-80.34582c14.45874,-6.79663 8.78149,-16.11035 8.26001,-24.77954c32.78418,-4.00708 31.84277,-24.8772 42.80078,-39.79737c-3.40039,-30.45019 -25.72241,-46.18359 -46.55542,-63.07519c-72.33105,23.02344 -110.10864,28.49158 -158.43872,24.02856c-69.68555,-6.43506 -106.90601,-47.12365 -159.18994,-71.33496c-29.50195,-6.59338 -36.21118,6.51343 -48.80811,-2.25268c-28.27563,-19.67676 -20.05127,-37.05787 -29.28491,-58.56995z" id="path3062" fill="#000000"/>
  </g>
  <g id="layer4" display="inline">
   <path d="m185.32959,1218.88635c12.5,10.20459 15.62622,18.06568 42.47705,31.85779c13.22437,199.1698 183.19873,164.53711 250.6145,263.35779c-37.63354,0.51855 -66.90576,14.9729 -99.07006,24.60644c-98.81177,29.59534 -172.1001,-93.64502 -259.10987,-78.58252c6.39868,-45.04638 -29.73974,-107.89941 -19.86572,-130.79907c5.26611,-12.21289 24.79468,-22.53821 41.90723,-42.06738c17.4497,-19.9137 32.53637,-49.09827 43.04687,-68.37305z" id="path3065" fill="#000000"/>
   <path d="m240.06152,1249.57837c2.25635,206.26184 238.72998,148.47595 315.37598,346.91345c91.7898,8.18835 178.40381,-12.89587 237.28272,-60.07153c-124.45582,2.42846 -244.5293,-76.05762 -273.32569,-166.69873c-91.95264,-51.63318 -210.92016,-99.68298 -279.33301,-120.14319z" id="path3067" fill="#000000"/>
   <path d="m530.45557,1377.11352c71.92382,175.9087 414.27172,168.89234 479.99047,140.17408c24.92432,-10.89136 62.15357,-85.34473 128.29248,-141.47254c51.52295,-43.72424 124.53785,-87.62732 192.54541,-70.34973c8.79175,2.23377 19.77686,9.20252 27.47413,3.68494c8.2517,-5.91553 4.13085,-19.78369 6.71069,-29.43311c29.02954,-108.58105 97.25561,-197.78149 62.31445,-304.01184c-125.57544,261.82727 -186.27344,181.8573 -294.13598,180.33594c-20.73975,-0.29272 -45.26832,2.31519 -70.10474,10.81079c-37.54858,12.844 -67.84619,43.60071 -92.7644,65.21985c-62.73487,54.42871 -99.81934,86.03833 -152.75293,77.30335c-12.26612,-2.02405 -22.80713,-11.776 -35.89307,-11.90625c-17.15479,-0.17066 -31.13574,14.54712 -45.58472,24.69775c-59.55078,41.83545 -110.69116,105.29724 -206.09179,54.94678l0,-0.00001z" id="path3069" fill="#000000"/>
   <path d="m1083.71899,1448.26245c145.03223,75.97583 174.82959,60.3595 233.35059,13.20996c29.17358,-23.50464 82.05127,-60.79272 122.948,-85.21094c9.88721,-5.90332 18.30029,-13.28222 27.05664,-15.07702c10.13794,-2.07776 19.78247,-0.33887 28.40723,-1.6908c82.04028,-12.8584 86.60083,-95.15271 107.51953,-134.23572c42.10876,-78.6737 45.00866,-236.93273 36.10547,-226.19018c-8.36158,10.08874 -96.78687,-42.88172 -87.07813,-50.97254c-29.42895,21.3617 -60.27734,46.27063 -100.88281,95.57349c-5.17554,69.19055 -64.7898,177.84192 -78.58252,263.35767c-0.98706,6.11914 -9.73975,9.3529 -15.96533,11.26977c-9.48536,2.92041 -20.64307,2.19849 -29.76978,-0.51526c-83.51001,-24.83142 -175.27588,64.54212 -243.10889,130.48157z" id="path3071" fill="#000000"/>
   <path d="m766.20313,1292.1593c-66.80591,-25.68371 -133.67359,-48.39721 -206.01368,-93.44958c-56.75903,-140.99011 -198.79028,-183.10523 -264.41943,-216.63282c-48.90967,-24.98608 61.38159,-93.8424 113.62598,-144.42199c-60.41797,-62.97156 -97.04273,-140.5437 -33.98169,-279.2865c-93.6814,-6.99097 -164.04468,133.23462 -239.03052,256.92724c-31.24365,51.53809 -66.80005,96.69568 -99.58057,132.73767c-7.05444,7.75635 -16.50366,12.9845 -21.38183,21.30042c-4.28589,7.30652 2.27856,17.69006 9.82861,28.48218c20.99121,30.00451 71.52881,71.20215 122.51099,133.26025c20.5166,24.97388 30.54052,62.46729 59.86914,85.6864c39.37915,31.17664 89.86279,40.87732 141.97168,59.17407c41.32153,14.50892 93.13183,36.07581 142.604,58.74366c37.56177,17.21057 69.95776,47.18542 103.0271,50.92859c60.28369,6.8236 114.0542,-62.22559 170.97022,-93.44947l0,-0.00012z" id="path3073" fill="#000000"/>
   <path d="m110.99463,808.98291c81.69629,-95.43567 144.29809,-248.15405 253.80029,-260.17188c0.97119,-81.81567 -2.70581,-75.31555 -4.2478,-109.37841c47.43286,5.66357 94.86548,-7.07947 142.2981,-38.22937c-24.39551,-70.83118 20.37988,-133.97681 71.14917,-196.4563c-125.02881,-17.35877 -240.37207,161.68054 -403.53199,83.89209c47.23194,179.68786 -175.79809,358.54516 -59.46777,520.34387z" id="path3075" fill="#000000"/>
   <path d="m509.63281,391.30518c-9.56714,-173.44739 137.19336,-177.81885 256.75171,-250.31592c15.5669,-9.43945 139.77564,-123.39478 199.04151,-116.12085c38.36279,4.70825 60.68847,54.48327 82.60034,81.40698c64.46338,79.20789 250.94189,151.57678 272.57324,242.22864c-47.84033,-6.92859 -151.17676,-101.43677 -166.69873,-96.1145c-25.0354,8.58447 -43.62647,10.13879 -89.35644,41.29931c-47.4292,-78.78699 -102.41407,-42.34924 -157.68799,-1.50183c-45.24268,-14.90686 -94.18311,-41.52417 -116.38892,16.51965c-110.72534,-99.39428 -192.85742,13.27796 -280.83472,82.59851l0,0.00001z" id="path3077" fill="#000000"/>
   <path d="m1445.99902,1033.32056c26.52222,-35.1499 56.53223,-67.12903 89.98487,-95.97864c37.73291,-32.54114 122.89953,-68.48865 126.27307,-85.73804c5.34912,-27.35217 -40.17761,-78.30188 -49.57263,-119.59155c-15.96119,-70.1471 -28.8191,-147.2074 -5.36744,-218.94434c32.55799,-99.59228 39.05811,-177.41845 33.91492,-251.66772c-190.56165,61.40075 -402.10974,-176.15467 -507.9696,-99.37586c124.71801,80.3639 204.52319,151.71497 194.09546,193.98865c39.30542,9.17529 94.48754,20.42908 137.2517,28.00159c59.96436,10.61816 102.69483,20.15417 106.03833,60.604c1.81641,21.97486 0.89283,44.69495 -4.71777,66.77967c-11.8977,46.83044 -27.7749,84.23828 -35.45093,128.50085c-8.00048,46.13354 -12.81079,74.98914 8.73316,118.14783c5.27856,10.57446 21.15259,29.91504 20.92309,43.9978c-0.76855,47.15918 -77.51245,112.02869 -127.65234,165.19702c12.24609,23.9613 12.16992,44.84228 13.51611,66.07874z" id="path3079" fill="#000000"/>
   <path d="m1074.16162,309.87769c18.09302,-18.73377 47.04517,-38.52869 82.83032,-37.16736c14.802,0.56299 33.2273,19.70019 47.82618,29.08154c39.70825,25.5166 81.74438,49.67493 141.55224,69.67566c93.46167,31.25549 192.69165,27.79199 204.59595,74.33667c18.66748,72.98682 -25.78198,141.14502 -35.44556,199.93994c-11.74829,71.48035 17.81104,127.65589 19.51685,168.54846c2.01953,48.41382 -62.07618,91.03809 -105.32398,135.53968c-51.25024,65.98755 -76.94726,177.3601 -153.78613,197.90515c-31.20947,8.34472 -65.38867,-1.40003 -97.71192,-1.72889c-42.06054,-0.42822 -82.83276,0.43238 -118.92089,5.97657c52.00097,-43.48584 133.57788,-76.21704 211.75683,-110.18372c17.8628,-7.76074 38.27783,-11.35046 52.6626,-23.61889c16.2019,-13.81812 21.70654,-34.56543 28.42603,-51.96082c39.99511,-103.53686 -10.1084,-206.96655 29.5354,-306.29541c6.78027,-16.9884 18.14184,-31.8645 21.6831,-52.70935c3.21191,-18.90454 -1.50659,-39.05713 -25.21167,-49.1167c-29.12036,-12.35754 -71.90625,-3.6897 -102.67725,-12.46863c-37.4707,-10.69055 -57.82202,-25.55737 -79.18652,-36.11181c-5.20581,-21.86646 26.48804,-113.52027 12.74292,-125.30725c-39.86572,-34.18689 -88.00098,-48.2605 -134.8645,-74.33484z" id="path3081" fill="#000000"/>
   <path d="m1195.20019,519.70825c-14.16577,54.95923 -14.39843,135.4624 -21.02514,204.24341c8.69336,34.27515 69.43652,89.35583 9.26123,166.90295c-7.97559,10.27808 -25.43897,29.51368 -38.96387,40.08643c-64.91601,50.74683 -138.6001,111.57434 -223.51465,180.51184c-16.58691,13.46606 -46.16479,27.24146 -62.43554,41.31165c-81.32202,0.31238 -148.11426,-116.88684 -314.32593,-104.35071c-12.46729,-75.66187 -37.23389,-139.05481 -119.41455,-195.30823c-18.58203,10.25733 -175.71118,101.92359 -90.83154,134.70581c75.67822,29.52259 181.25439,78.29163 235.00341,188.1792c7.03858,20.47644 159.14014,124.01953 283.9126,115.18543c36.48023,-2.58277 67.87744,-36.74659 96.04028,-58.11744c17.76661,-13.48168 42.969,-33.8684 54.89307,-45.71093c75.35962,-74.84351 118.89551,-91.23169 182.38989,-120.9878c148.64624,-44.30798 164.03077,-110.82617 171.20411,-178.71301c0.71484,-74.86377 -14.04322,-97.44385 4.07812,-197.771c5.1394,-28.45471 30.54736,-62.0852 24.45581,-107.0924c-2.98584,-22.06226 -42.17041,-14.85596 -67.5415,-18.30738c-38.1001,-5.18298 -81.2522,-10.67028 -123.18579,-44.76782l-0.00001,0z" id="path3083" fill="#000000"/>
   <path d="m1157.65552,723.95166l-22.52686,15.01794c39.84058,139.1615 -190.66089,226.00232 -316.77392,257.38379c-31.59619,7.86231 -65.59742,10.25281 -76.69532,11.43665c-26.47216,-43.56568 -69.98779,-84.68787 -115.4292,-105.57886c-33.85253,-15.56323 -82.15502,-6.67077 -87.3125,-23.57507c-53.31298,-174.74426 -22.11669,-268.4104 51.06104,-318.37952c-3.21021,-76.0011 -3.68774,-111.21838 27.9812,-123.88598c90.01465,-53.48914 128.32715,-85.62195 164.2478,-120.90589c-62.72216,-37.70886 -84.84253,-54.02844 -152.59106,-2.70996c-97.57886,73.51233 -174.09522,145.34924 -254.39404,139.37293c6.87866,39.6676 10.2395,69.68884 13.33398,105.01855c-75.86694,127.90686 -9.87402,254.15564 40.73047,280.94153c91.39258,53.96545 120.00024,129.38672 129.90478,201.23987c116.73145,-29.1471 227.73438,97.91064 286.09107,100.61999c17.85132,0.13538 88.83032,-52.00964 144.70508,-97.57434c56.15112,-45.78992 109.11938,-85.08276 146.26806,-118.37732c22.65528,-20.19958 32.93091,-41.58972 49.93335,-60.37781c14.36499,-15.87341 21.69751,-60.02588 -28.53393,-139.6665z" id="path3085" fill="#000000"/>
   <path d="m589.92334,569.51855c-23.50537,18.05164 -49.79419,50.5669 -60.4585,96.65186c-19.53125,84.40247 16.02222,203.53503 29.65577,204.67395c103.66479,24.70569 145.36987,73.25061 189.02954,116.01123c206.9353,-2.83093 424.06274,-158.58093 378.0459,-245.83594c-33.61622,24.3501 -67.46192,48.41358 -95.57349,79.64453c-66.56982,-47.16821 -176.89575,99.66651 -243.18091,107.25452c-159.77417,-48.19324 -162.39551,-172.2533 -243.18115,-258.5791c23.39868,-26.85083 39.81519,-66.34998 45.66284,-99.82105z" id="path3087" fill="#000000"/>
   <path d="m1141.13574,653.36755c11.65625,-21.45581 0,-77.0957 -2.53979,-124.00439c-1.40113,-25.81262 5.19043,-38.51086 7.65429,-65.98486c1.70582,-19.02466 -1.81543,-42.27723 3.74707,-62.0271c-28.76562,2.03625 -62.26489,-32.2063 -90.58398,-52.81104c-6.89429,-5.01636 -12.41211,-13.31726 -20.78076,-14.89209c-7.0542,-1.32751 -13.61914,5.07752 -20.42847,8.25232c-22.99414,10.72058 -45.98804,25.63245 -68.98218,38.21472l-60.34668,-43.24841c-8.91577,-2.92652 -19.6958,0.42883 -28.70898,-0.18799c-15.46143,-1.05823 -28.81909,-3.4906 -41.01294,5.16504c-53.29761,37.83301 -82.06787,143.85522 -86.12036,190.96753c-45.23291,-7.08643 -87.30469,8.48169 -115.70459,122.03223c24.85986,7.9093 59.37817,-0.20362 73.00146,11.15722c8.65454,7.96558 15.54981,36.33496 15.54981,36.33496l15.69067,62.07495c31.83374,42.55481 82.85083,63.00721 179.56006,30.81397c119.83521,-23.4259 151.42969,-68.84253 202.54199,-78.83789l32.8794,-50.04211c12.93872,5.11535 14.62207,27.91747 18.09228,47.91198c-28.08398,15.21997 -79.53515,55.75501 -123.13916,87.78821c-28.68213,-4.76563 -63.26513,4.08093 -105.07104,27.96655c-48.74512,27.85034 -104.25537,71.94666 -124.70264,74.15528c-83.76416,14.55908 -181.01294,-111.72925 -232.77759,-234.2793c0,0 21.77784,-49.86048 34.06372,-109.21253c9.54908,-46.13171 -6.86865,-71.60449 11.77857,-100.24951c11.92847,-18.32361 69.25952,-54.11035 100.62524,-77.01379c37.52173,-27.39844 70.41333,-54.06653 88.84741,-71.0105c10.25977,-9.43005 13.80787,-17.25598 15.65064,-17.70349c16.42993,-3.99085 59.60352,11.57056 88.84448,6.41467c35.50684,-6.26074 54.6958,-45.12561 90.74829,-44.74817c29.64258,0.31031 39.81983,41.32874 70.8313,64.07886c34.94776,25.63794 81.35889,38.57922 110.11987,58.02234c7.98023,5.3949 20.04688,9.89807 19.24244,18.09631l-2.71827,27.69861c-19.98925,92.70337 -19.57031,195.61096 -28.81933,293.68457l-27.03223,-64.57715z" id="path3089" fill="#000000"/>
   <path d="m946.73071,398.01758c20.91211,-15.36536 43.56104,-29.33411 61.40259,-40.13465c11.2168,-6.78991 18.2854,-13.29101 28.86108,-15.08557c29.55689,26.05945 66.89283,56.44678 97.69727,76.45874c-6.12842,73.08106 -5.47754,150.68152 -3.18579,229.37598c-107.74951,132.44421 -347.86377,196.59949 -391.85083,121.05957c-11.40381,-34.17773 -30.50415,-70.27966 -31.85791,-101.94482c-19.29907,-22.32715 -44.85352,-17.547 -67.96314,-23.36243c5.93921,-98.30359 61.7129,-102.88086 96.63526,-103.00684c0,0 39.8396,-170.03003 108.3164,-194.33252c39.25904,-13.93286 101.94507,50.97254 101.94507,50.97254z" id="path3091" fill="#000000"/>
  </g>
  <g id="layer5">
   <path d="m1570.0813,252.78137c59.52576,-49.09704 134.90295,-88.68323 155.04126,-161.41284c-6.03369,48.07507 -53.6759,103.79248 -129.02417,164.59863l-26.01709,-3.18579z" id="path3094" fill="#ffffff"/>
   <path d="m1488.84375,241.6311c-2.49146,-42.36816 -28.14453,-49.99365 -46.19385,-69.02514c17.69947,20.97278 42.30445,38.49255 38.7605,70.08703l7.43335,-1.06189z" id="path3096" fill="#ffffff"/>
   <path id="path3098" d="m1581.23144,245.87878c-2.49145,-42.36804 -15.93261,-127.51416 -39.29126,-141.76709c20.88501,19.37989 30.6233,118.6681 27.07911,150.26258l12.21215,-8.49549z" fill="#ffffff"/>
   <path d="m1646.00891,69.599c26.18396,29.59961 11.69666,68.4425 9.02637,104.59985c0.77783,-36.1289 6.20666,-73.80798 -9.02637,-104.59985z" id="path3100" fill="#ffffff"/>
   <path d="m1678.92859,225.70227c28.45068,23.46411 57.63831,46.63709 48.84863,83.89209c13.40222,-49.03076 -19.86902,-64.93872 -48.84863,-83.89209z" id="path3102" fill="#ffffff"/>
   <path d="m1659.81397,278.2677c20.0111,30.43884 26.51721,64.25415 23.89343,100.35193c4.88415,-37.73352 4.80151,-73.81152 -23.89343,-100.35193z" id="path3104" fill="#ffffff"/>
   <path d="m1657.15906,1115.06543c58.12146,-77.10889 143.70202,-131.33484 269.72925,-151.85547c-93.79615,12.72608 -187.04017,30.83533 -269.72925,151.85547z" id="path3106" fill="#ffffff"/>
   <path id="path3108" d="m1716.37793,1030.37061c11.28406,-38.53479 38.91406,-76.14551 59.62976,-103.74622c-23.6571,22.44177 -49.33996,47.21143 -59.62976,103.74622z" fill="#ffffff"/>
   <path d="m1665.63232,996.32568c1.57215,-15.58044 9.47742,-31.97485 15.44715,-44.03735c-7.46607,10.2948 -15.54261,21.62683 -15.44715,44.03735z" id="path3110" fill="#ffffff"/>
   <path d="m1790.90393,1029.41394c30.62915,12.39197 69.00745,13.76318 97.39575,14.48596c-26.56067,3.80921 -55.65796,7.73755 -97.39575,-14.48596z" id="path3112" fill="#ffffff"/>
   <path id="path3114" d="m1733.88916,1083.01929c25.43225,21.09289 61.58936,34.03259 88.42285,43.32617c-26.4657,-4.4209 -55.38489,-9.49707 -88.42285,-43.32617z" fill="#ffffff"/>
   <path d="m1664.05591,1148.72253c25.43225,21.09302 61.58923,34.03272 88.42285,43.3263c-26.4657,-4.42078 -55.38477,-9.49707 -88.42285,-43.3263z" id="path3116" fill="#ffffff"/>
   <path d="m1494.68433,1376.29919c200.94433,149.11414 223.21154,228.12415 229.3761,279.2865c-4.7732,-49.81689 -62.74146,-151.88684 -250.61463,-279.2865l21.23853,0z" id="path3118" fill="#ffffff"/>
   <path d="m1549.37378,1370.98962c49.59717,-38.93933 98.3634,-27.19348 146.54565,20.17664c-42.09082,-33.75623 -87.6062,-53.81458 -146.54565,-20.17664z" id="path3120" fill="#ffffff"/>
   <path d="m1641.76123,1460.19141c38.64246,15.83349 74.0907,35.35241 94.51135,72.21093c-15.00842,-42.13659 -49.84814,-62.55322 -94.51135,-72.21093z" id="path3122" fill="#ffffff"/>
   <path d="m1636.98267,1557.88855c-3.44361,38.40637 -3.51831,76.81262 8.49536,115.21899c-6.93311,-38.40637 -8.60071,-76.81262 -8.49536,-115.21899z" id="path3124" fill="#ffffff"/>
   <path d="m1549.90454,1467.09387c-54.33105,65.13123 -54.44653,127.74085 -48.84839,190.08472c-16.51318,-104.56641 10.60376,-154.31604 48.84839,-190.08472z" id="path3126" fill="#ffffff"/>
   <path d="m1461.76465,1418.77625c-53.92798,16.57702 -76.36719,41.82141 -74.33496,108.84741c1.72607,-44.35083 16.36596,-84.18177 74.33496,-108.84741z" id="path3128" fill="#ffffff"/>
   <path d="m1033.00684,1512.146c-8.76172,125.81274 113.14013,241.10791 136.66308,281.58569c-52.08594,-46.63232 -171.47339,-202.84766 -136.66308,-281.58569z" id="path3130" fill="#ffffff"/>
   <path d="m1054.03198,1503.13525c51.29663,-8.76123 101.27588,-13.04284 132.90845,45.05384c-42.96973,-52.34693 -87.9961,-47.10071 -132.90845,-45.05384z" id="path3132" fill="#ffffff"/>
   <path d="m1078.06055,1600.00085c73.04297,22.54151 87.92822,64.469 115.63769,102.12171c-27.85327,-38.44348 -25.41748,-89.35877 -115.63769,-102.12171z" id="path3134" fill="#ffffff"/>
   <path d="m1051.02832,1679.5957c-0.37549,19.27295 2.40942,38.5459 12.0144,57.81897c-16.99023,-17.97448 -14.58447,-37.88855 -12.0144,-57.81897z" id="path3136" fill="#ffffff"/>
   <path d="m1012.73267,1545.18542c-35.03272,21.66846 -41.98047,62.4856 -33.03931,114.13611c-2.68701,-60.17614 9.71045,-95.98535 33.03931,-114.13611z" id="path3138" fill="#ffffff"/>
   <path d="m317.0083,1550.45508c-10.40014,70.86535 -56.70703,144.72278 -168.84619,224.0664c56.63013,-29.72021 159.46826,-99.80761 181.58936,-220.88061l-12.74317,-3.18579z" id="path3140" fill="#ffffff"/>
   <path d="m328.68945,1579.12708c16.73096,39.36389 61.13257,91.12109 13.80518,163.53662c74.35278,-73.52356 -7.71216,-140.99329 -13.80518,-185.83704l0,22.30042z" id="path3142" fill="#ffffff"/>
   <path d="m428.5105,1549.39319c43.98779,9.50989 30.06909,47.97302 31.85791,78.58252c-0.19263,-34.72522 -1.18555,-68.79541 -31.85791,-78.58252z" id="path3144" fill="#ffffff"/>
   <path d="m259.66431,1607.79907c-38.87793,22.12818 -77.37012,48.15137 -121.05957,75.39673c51.40356,-22.35254 86.18896,-50.49048 121.05957,-75.39673z" id="path3146" fill="#ffffff"/>
   <path d="m288.33643,1541.95972c-37.56128,0.11523 -73.58667,9.44482 -108.31641,26.54809c31.94214,-21.63672 66.51392,-35.19677 108.31641,-26.54809z" id="path3148" fill="#ffffff"/>
  </g>
  <g id="layer6">
   <path d="m799.85352,801.55896c-11.85303,8.57312 -131.54102,-2.4342 -162.19336,-109.63074c10.62011,78.58631 86.74341,151.69471 198.9873,114.13599l-36.79394,-4.50525z" id="path3157" fill-rule="nonzero" fill="#ffffff"/>
   <path d="m738.28003,764.01416c72.07715,-35.90955 137.74219,-6.08594 146.42456,27.03223l21.02515,-0.75098c-11.66309,-26.44861 -47.91407,-39.46082 -85.60205,-51.81165c12.58911,-6.76062 39.0061,-9.74987 73.58764,-10.51257c-36.76269,-1.07788 -55.09961,-19.4331 -159.94067,31.5376l4.50537,4.50537z" id="path3159" fill-rule="nonzero" fill="#ffffff"/>
   <path d="m850.16357,695.68274c-43.73608,-5.83826 -122.73852,-16.34912 -117.51513,-161.81787l10.88794,-27.40772c-11.71949,95.61731 15.58838,176.26807 106.62719,189.22559z" id="path3161" fill-rule="nonzero" fill="#ffffff"/>
   <path d="m775.82495,593.18543c5.87451,46.69812 71.20044,101.07873 112.25879,132.15759c-45.91992,-27.72315 -120.88794,-85.77588 -112.25879,-132.15759z" id="path3163" fill-rule="nonzero" fill="#ffffff"/>
   <path d="m1012.56787,464.08337c0,0 63.06323,-5.56762 81.76831,14.86695c24.84082,27.13781 1.13281,74.22546 10.08838,109.9093c3.64868,14.53894 17.55469,26.8789 12.21192,40.88428c-15.78443,41.3789 -79.33692,79.4718 -135.5979,95.15808c-39.98951,11.14966 -79.9729,5.72485 -79.9729,5.72485c0,0 37.72827,11.26868 77.15112,1.6687c58.58105,-14.26538 128.60132,-56.0083 146.38428,-98.83496c6.03759,-14.54016 -9.03809,-26.01416 -12.21216,-44.06994c-6.55005,-37.26136 16.51489,-85.68079 -9.55738,-113.0951c-20.92382,-22.00097 -90.26367,-12.21216 -90.26367,-12.21216z" id="path3165" fill-rule="nonzero" fill="#ffffff"/>
   <path d="m1061.91577,545.50366c6.5835,-1.8811 21.32593,32.98413 6.75806,57.06799c-5.33032,8.81214 17.32739,18.21546 13.51611,27.78309c-9.9956,25.09277 -51.26196,17.33374 -75.84033,28.53418c-22.52222,10.2633 -65.32788,35.29199 -65.32788,35.29199c-7.61988,4.11633 -17.38574,-6.39368 -20.5542,-7.94092c-55.47266,-27.08948 -105.27393,-62.42895 -132.14893,-96.13428c-30.61743,-38.39892 -0.5476,-163.68444 76.86255,-128.70239c-60.95972,-74.95251 -213.01733,132.92419 55.42847,233.1471c6.55102,2.4458 15.81128,8.1654 22.47705,4.88671c27.47021,-13.51171 50.03418,-30.07324 67.95605,-36.79382c0,0 65.83057,-5.39648 77.15455,-30.78674c5.03588,-11.29175 -16.82691,-18.99427 -11.26368,-30.03577c13.32154,-26.43909 -0.49926,-62.29541 -15.01782,-56.31714z" id="path3167" fill-rule="nonzero" fill="#ffffff"/>
   <path d="m828.32373,571.8689c29.21728,-62.9358 90.82837,-52.04273 122.65259,-48.84864c18.6726,55.58081 -36.59009,97.4867 -71.14917,101.41407c19.29175,3.89367 106.96362,-11.44922 72.21094,-118.93579c-56.71363,7.40283 -122.62378,6.05798 -123.71436,66.37036z" id="path3169" fill-rule="nonzero" fill="#ffffff"/>
   <path id="path3171" d="m852.75513,582.12097c21.98779,-29.69238 52.95459,-17.40393 69.21045,-12.32531c3.77905,30.99182 -29.53833,46.92272 -47.98462,45.26513c9.64453,4.09949 57.01709,5.49878 50.41748,-54.29016c-30.37403,-2.2207 -64.60669,-9.99011 -71.64331,21.35034z" fill-rule="nonzero" fill="#ffffff"/>
   <path d="m829.9165,534.70142c21.17627,-30.02991 28.14673,-61.41639 57.875,-89.20179c7.86988,-7.35559 39.63208,4.61243 74.33643,7.41346c5.09082,0.41089 11.1582,-2.37806 15.39624,0.55102c11.09961,7.67114 11.13525,18.31848 14.90601,29.07898c14.75805,42.11548 -6.75025,89.90881 -28.17994,107.90942c2.39136,0.21741 37.91748,-58.38354 22.72657,-90.32959c-5.0835,-10.69043 6.29809,-22.05639 -15.82422,-31.79187c-1.86206,-0.81958 -42.28833,-11.28002 -70.08692,-18.58374c-33.34204,23.91724 -48.87963,54.11683 -71.14917,84.95411z" id="path3173" fill-rule="nonzero" fill="#ffffff"/>
   <path d="m907.43726,358.15625c100.67187,63.35071 114.96386,131.59045 119.46655,176.01416c-7.95532,-55.59192 -74.52832,-136.97022 -119.46655,-176.01416z" id="path3175" fill-rule="nonzero" fill="#ffffff"/>
   <path d="m1002.59522,522.22595c83.71533,110.23841 -9.73853,101.66895 -90.8584,101.37085c60.30005,-10.09509 139.77759,-5.05005 90.8584,-101.37085z" id="path3177" fill-rule="nonzero" fill="#ffffff"/>
   <path d="m847.91089,646.87451c71.31909,-26.93237 -14.72852,-26.25049 -49.55908,-39.79736c36.81445,17.50354 85.19897,16.05578 49.55908,39.79736z" id="path3179" fill-rule="nonzero" fill="#ffffff"/>
   <path d="m879.44849,652.13074c17.52099,-3.94068 35.04174,-11.79322 52.56274,-4.50525c-11.5791,-5.76062 -23.37305,-11.2583 -52.56274,4.50525z" id="path3181" fill-rule="nonzero" fill="#ffffff"/>
  </g>
  <g id="layer7" filter="url(#filter3186)"/>
 </g>
</svg>