<?xml version="1.0" standalone="no"?>
<!DOCTYPE svg PUBLIC "-//W3C//DTD SVG 20010904//EN"
 "http://www.w3.org/TR/2001/REC-SVG-20010904/DTD/svg10.dtd">
<svg version="1.0" xmlns="http://www.w3.org/2000/svg"
 width="1280.000000pt" height="1167.000000pt" viewBox="0 0 1280.000000 1167.000000"
 preserveAspectRatio="xMidYMid meet">
<metadata>
Created by potrace 1.15, written by Peter Selinger 2001-2017
</metadata>
<g transform="translate(0.000000,1167.000000) scale(0.100000,-0.100000)"
fill="#000000" stroke="none">
<path d="M6004 11661 c-74 -19 -122 -66 -166 -163 -17 -38 -18 -38 -75 -38
-106 0 -173 -34 -158 -79 3 -12 36 -65 72 -119 105 -157 161 -282 154 -349 0
-6 -45 -21 -98 -33 -315 -72 -502 -199 -802 -543 -56 -64 -115 -124 -131 -132
-22 -11 -65 -15 -173 -15 -109 0 -162 -5 -219 -19 -144 -37 -273 -116 -399
-246 -46 -46 -96 -90 -112 -96 -23 -10 -63 -10 -181 -1 -392 30 -524 -67 -543
-396 -3 -56 -10 -105 -14 -108 -12 -7 -47 29 -244 251 -98 110 -242 263 -319
340 -239 237 -347 297 -916 501 -102 36 -241 91 -310 121 -208 91 -250 99
-327 62 -64 -31 -96 -90 -97 -182 -2 -93 -16 -112 -125 -184 -218 -143 -380
-299 -505 -485 -224 -338 -331 -750 -313 -1213 9 -223 38 -399 113 -692 51
-202 64 -268 64 -329 0 -101 27 -179 145 -419 178 -363 513 -923 1000 -1675
360 -557 515 -848 580 -1095 9 -33 23 -83 32 -111 16 -50 16 -55 -10 -170 -40
-179 -50 -297 -44 -478 9 -255 63 -451 202 -733 244 -496 607 -843 1296 -1238
101 -59 247 -138 324 -177 77 -39 153 -80 169 -91 l29 -20 -7 -151 c-4 -85
-14 -175 -23 -206 -20 -70 -13 -182 16 -238 21 -41 80 -88 136 -110 17 -6 76
-22 133 -36 56 -14 116 -34 132 -46 17 -12 55 -59 85 -105 160 -243 378 -320
778 -276 159 18 225 9 392 -53 177 -66 264 -80 490 -80 220 -1 255 5 435 74
179 69 212 73 421 55 182 -16 258 -12 386 21 147 37 238 89 358 204 94 90 131
111 243 139 44 11 100 30 123 41 63 33 135 106 166 169 24 49 28 68 28 151 1
79 4 101 23 130 36 59 53 120 62 225 10 120 2 111 193 207 271 135 464 260
676 436 64 52 136 104 160 115 29 12 93 24 195 33 83 8 196 25 251 39 580 139
1068 597 1324 1243 187 472 231 1021 146 1798 -14 126 -32 301 -40 389 -20
212 -20 568 0 705 8 58 21 164 30 236 64 568 417 1225 884 1647 145 131 264
200 451 262 180 59 257 117 246 184 -25 158 -530 315 -842 261 -87 -16 -137
-36 -255 -106 -455 -269 -809 -687 -1172 -1384 -146 -280 -280 -590 -337 -782
-17 -57 -49 -192 -71 -301 -77 -383 -221 -777 -363 -989 -44 -66 -111 -132
-125 -124 -6 4 -74 79 -152 167 -77 88 -245 267 -373 397 -307 314 -411 440
-530 641 -163 275 -210 489 -210 941 0 224 4 287 23 410 50 328 132 582 280
879 68 133 107 202 251 431 93 148 104 169 101 205 -5 64 -4 104 4 191 12 127
-24 243 -100 318 -71 72 -162 95 -365 96 -164 1 -182 7 -295 110 -145 130
-262 197 -425 241 -74 21 -110 24 -271 25 -144 1 -191 4 -207 15 -11 8 -52 56
-91 106 -243 315 -509 511 -821 603 -57 17 -108 36 -112 43 -12 17 -1 82 21
125 11 21 71 98 134 173 114 136 132 163 121 180 -17 28 -69 41 -134 35 -36
-4 -74 -4 -83 -1 -9 4 -26 36 -38 72 -40 122 -110 173 -244 179 -44 2 -94 0
-111 -5z m-4500 -1761 c217 -54 433 -175 640 -356 89 -79 211 -216 239 -270
17 -32 17 -37 1 -70 -9 -19 -48 -63 -86 -97 -85 -75 -111 -122 -111 -197 0
-130 91 -227 229 -245 60 -8 163 14 236 51 75 38 129 36 172 -5 58 -56 231
-376 350 -644 130 -294 214 -526 254 -697 24 -106 26 -133 26 -345 1 -201 -2
-245 -23 -350 -14 -74 -21 -141 -18 -174 4 -51 8 -58 52 -96 45 -39 47 -44 41
-77 -10 -54 -95 -179 -240 -353 -28 -33 -170 -181 -316 -330 -146 -148 -305
-313 -353 -367 -49 -53 -99 -99 -112 -102 -13 -3 -54 4 -92 15 -396 122 -867
592 -1286 1284 -155 257 -330 638 -391 855 -15 52 -45 134 -66 181 -44 98 -69
189 -99 364 -44 255 -62 431 -68 661 -8 328 15 522 91 748 123 366 306 574
561 636 67 16 269 5 369 -20z"/>
</g>
</svg>
